M48
; DRILL file {KiCad 9.0.4} date 2025-10-15T21:19:01+0200
; FORMAT={-:-/ absolute / metric / decimal}
; #@! TF.CreationDate,2025-10-15T21:19:01+02:00
; #@! TF.GenerationSoftware,Kicad,Pcbnew,9.0.4
; #@! TF.FileFunction,Plated,1,4,PTH
FMAT,2
METRIC
; #@! TA.AperFunction,Plated,PTH,ViaDrill
T1C0.250
; #@! TA.AperFunction,Plated,PTH,ComponentDrill
T2C0.250
; #@! TA.AperFunction,Plated,PTH,ViaDrill
T3C0.300
; #@! TA.AperFunction,Plated,PTH,ViaDrill
T4C0.500
; #@! TA.AperFunction,Plated,PTH,ComponentDrill
T5C0.650
; #@! TA.AperFunction,Plated,PTH,ComponentDrill
T6C0.700
; #@! TA.AperFunction,Plated,PTH,ComponentDrill
T7C1.000
; #@! TA.AperFunction,Plated,PTH,ComponentDrill
T8C1.200
; #@! TA.AperFunction,Plated,PTH,ComponentDrill
T9C1.600
; #@! TA.AperFunction,Plated,PTH,ComponentDrill
T10C2.000
; #@! TA.AperFunction,Plated,PTH,ComponentDrill
T11C3.200
%
G90
G05
T1
X76.18Y-99.0
X76.5Y-85.0
X78.0Y-107.0
X79.0Y-90.5
X79.5Y-88.5
X80.0Y-99.0
X80.5Y-93.8
X83.28Y-70.155
X83.5Y-88.5
X83.7Y-130.0
X85.0Y-77.5
X86.5Y-101.5
X87.5Y-93.0
X88.0Y-90.5
X88.5Y-81.0
X90.151Y-102.658
X90.2Y-87.7
X90.5Y-84.5
X90.5Y-94.5
X92.2Y-129.7
X92.5Y-102.5
X94.1Y-69.9
X96.0Y-88.5
X96.0Y-90.0
X96.0Y-101.5
X97.0Y-93.0
X98.0Y-103.0
X99.0Y-78.0
X99.5Y-111.8
X99.688Y-102.749
X100.0Y-79.0
X100.0Y-81.0
X100.5Y-86.5
X100.891Y-90.654
X101.0Y-87.5
X101.0Y-103.0
X102.0Y-80.2
X102.291Y-101.056
X102.5Y-90.5
X103.0Y-102.5
X103.5Y-91.0
X103.5Y-93.5
X104.0Y-84.0
X104.5Y-106.75
X104.784Y-102.119
X104.882Y-119.994
X104.91Y-113.95
X105.5Y-102.5
X105.6Y-86.8
X106.72Y-96.78
X107.328Y-101.072
X107.552Y-113.592
X107.61Y-112.775
X108.0Y-102.5
X108.7Y-70.0
X109.0Y-84.0
X109.0Y-86.5
X109.0Y-102.5
X109.5Y-106.0
X109.6Y-81.4
X111.5Y-88.5
X111.5Y-94.575
X111.535Y-119.035
X114.25Y-102.5
X116.6Y-95.8
X117.0Y-79.5
X118.0Y-100.5
X119.062Y-114.938
X119.5Y-100.0
X120.785Y-116.705
X121.0Y-80.0
X121.0Y-107.5
X121.0Y-118.5
X121.5Y-93.5
X121.6Y-69.9
X122.7Y-82.3
X123.0Y-104.0
X124.018Y-117.078
X127.5Y-79.0
X127.5Y-80.5
X128.7Y-96.1
X130.0Y-117.5
X130.3Y-112.1
X131.1Y-95.5
X132.0Y-90.5
X132.0Y-119.88
X132.2Y-97.9
X133.7Y-93.3
X134.5Y-95.5
X134.5Y-100.0
X135.0Y-88.1
X135.41Y-115.73
X136.5Y-113.5
X138.3Y-102.8
X138.5Y-117.98
X139.01Y-120.455
X139.5Y-129.5
X139.5Y-130.5
X144.0Y-108.5
X144.2Y-96.5
X145.0Y-101.0
X145.8Y-91.2
X146.0Y-69.8
X146.7Y-108.2
X147.21Y-118.88
X148.4Y-130.4
X149.0Y-100.8
X150.485Y-105.77
X151.2Y-69.8
X155.0Y-106.2
X157.772Y-108.88
X159.2Y-101.2
X159.613Y-112.613
X160.3Y-88.5
X160.4Y-117.7
X162.8Y-112.1
X163.2Y-75.8
X164.4Y-115.0
X165.615Y-107.247
X165.8Y-87.6
X165.8Y-120.5
X165.9Y-126.1
X167.2Y-70.6
X168.3Y-112.1
X169.9Y-125.0
X169.91Y-107.88
X170.5Y-82.5
X170.7Y-91.649
X171.41Y-107.98
X174.3Y-120.1
X175.0Y-128.7
X175.3Y-124.8
X176.5Y-76.5
X178.2Y-70.1
X178.5Y-77.6
X178.6Y-121.1
X181.6Y-90.2
X182.8Y-83.7
X182.9Y-128.7
X183.5Y-116.1
X184.5Y-104.5
X185.5Y-103.5
X186.5Y-74.7
X187.2Y-123.9
X187.5Y-101.0
X187.5Y-103.5
X187.5Y-113.5
X188.5Y-120.0
X189.7Y-86.8
X191.0Y-100.5
X192.5Y-119.0
X193.0Y-95.5
X193.0Y-109.5
X195.0Y-109.0
X196.0Y-106.0
T2
X82.5Y-92.9
X82.5Y-94.3
X83.2Y-92.2
X83.2Y-93.575
X83.2Y-95.0
X83.9Y-92.9
X83.9Y-94.3
X84.6Y-92.2
X84.6Y-93.575
X84.6Y-95.0
X85.3Y-92.9
X85.3Y-94.3
T3
X101.55Y-91.775
X102.5Y-99.825
X103.0Y-92.825
X104.805Y-91.032
X108.0Y-99.825
X112.305Y-87.032
X125.685Y-97.0
X125.96Y-90.5
X127.185Y-87.5
X127.185Y-93.0
X184.635Y-108.525
X187.135Y-114.525
T4
X141.995Y-105.786
X150.485Y-108.945
T5
X194.91Y-98.08
X194.91Y-99.98
T6
X154.803Y-110.215
X154.803Y-112.755
X154.803Y-115.295
X154.803Y-117.835
T7
X78.82Y-73.06
X78.82Y-75.6
X78.82Y-123.86
X78.82Y-126.4
X81.36Y-73.06
X81.36Y-75.6
X81.36Y-123.86
X81.36Y-126.4
X83.9Y-73.06
X83.9Y-75.6
X83.9Y-123.86
X83.9Y-126.4
X86.44Y-73.06
X86.44Y-75.6
X86.44Y-123.86
X86.44Y-126.4
X88.98Y-73.06
X88.98Y-75.6
X88.98Y-123.86
X88.98Y-126.4
X91.52Y-73.06
X91.52Y-75.6
X91.52Y-123.86
X91.52Y-126.4
X94.06Y-73.06
X94.06Y-75.6
X94.06Y-123.86
X94.06Y-126.4
X96.6Y-73.06
X96.6Y-75.6
X96.6Y-123.86
X96.6Y-126.4
X99.14Y-73.06
X99.14Y-75.6
X99.14Y-123.86
X99.14Y-126.4
X101.68Y-73.06
X101.68Y-75.6
X101.68Y-123.86
X101.68Y-126.4
X104.22Y-73.06
X104.22Y-75.6
X104.22Y-123.86
X104.22Y-126.4
X106.76Y-73.06
X106.76Y-75.6
X106.76Y-123.86
X106.76Y-126.4
X109.3Y-73.06
X109.3Y-75.6
X109.3Y-123.86
X109.3Y-126.4
X111.84Y-73.06
X111.84Y-75.6
X111.84Y-123.86
X111.84Y-126.4
X114.38Y-73.06
X114.38Y-75.6
X114.38Y-123.86
X114.38Y-126.4
X116.92Y-73.06
X116.92Y-75.6
X116.92Y-123.86
X116.92Y-126.4
X119.46Y-73.06
X119.46Y-75.6
X119.46Y-123.86
X119.46Y-126.4
X122.0Y-73.06
X122.0Y-75.6
X122.0Y-123.86
X122.0Y-126.4
X124.54Y-73.06
X124.54Y-75.6
X124.54Y-123.86
X124.54Y-126.4
X127.08Y-73.06
X127.08Y-75.6
X127.08Y-123.86
X127.08Y-126.4
X129.62Y-73.06
X129.62Y-75.6
X129.62Y-123.86
X129.62Y-126.4
X132.16Y-73.06
X132.16Y-75.6
X132.16Y-123.86
X132.16Y-126.4
X134.7Y-73.06
X134.7Y-75.6
X134.7Y-123.86
X134.7Y-126.4
X137.24Y-73.06
X137.24Y-75.6
X137.24Y-123.86
X137.24Y-126.4
X139.78Y-73.06
X139.78Y-75.6
X139.78Y-123.86
X139.78Y-126.4
X142.32Y-73.06
X142.32Y-75.6
X142.32Y-123.86
X142.32Y-126.4
X144.86Y-73.06
X144.86Y-75.6
X144.86Y-123.86
X144.86Y-126.4
X147.4Y-73.06
X147.4Y-75.6
X147.4Y-123.86
X147.4Y-126.4
X149.94Y-73.06
X149.94Y-75.6
X149.94Y-123.86
X149.94Y-126.4
X152.48Y-73.06
X152.48Y-75.6
X152.48Y-123.86
X152.48Y-126.4
X155.02Y-73.06
X155.02Y-75.6
X155.02Y-123.86
X155.02Y-126.4
X157.56Y-73.06
X157.56Y-75.6
X157.56Y-123.86
X157.56Y-126.4
X162.579Y-87.049
X162.579Y-89.049
X162.579Y-91.049
X162.579Y-93.049
X162.579Y-95.049
X162.579Y-97.049
X187.532Y-88.5
X187.532Y-90.5
X187.532Y-92.5
X187.532Y-94.5
X187.532Y-96.5
X187.532Y-98.5
T8
X174.07Y-112.57
X182.32Y-122.74
T9
X78.82Y-68.615
X78.82Y-130.845
X125.81Y-105.48
X134.41Y-110.28
X139.61Y-97.48
X144.16Y-119.73
X154.93Y-101.96
X162.632Y-100.48
X170.26Y-116.385
X174.81Y-107.55
X177.88Y-117.02
X194.21Y-89.98
T11
X80.09Y-81.95
X80.09Y-117.51
X191.85Y-71.79
X191.85Y-127.67
T10
G00X151.129Y-86.249
M15
G01X152.029Y-86.249
M16
G05
G00X151.129Y-97.849
M15
G01X152.029Y-97.849
M16
G05
G00X176.082Y-87.7
M15
G01X176.982Y-87.7
M16
G05
G00X176.082Y-99.3
M15
G01X176.982Y-99.3
M16
G05
M30
