%TF.GenerationSoftware,KiCad,Pcbnew,9.0.4*%
%TF.CreationDate,2025-10-15T21:18:58+02:00*%
%TF.ProjectId,PM3_Audio_and_DMX,504d335f-4175-4646-996f-5f616e645f44,rev?*%
%TF.SameCoordinates,Original*%
%TF.FileFunction,Soldermask,Top*%
%TF.FilePolarity,Negative*%
%FSLAX46Y46*%
G04 Gerber Fmt 4.6, Leading zero omitted, Abs format (unit mm)*
G04 Created by KiCad (PCBNEW 9.0.4) date 2025-10-15 21:18:58*
%MOMM*%
%LPD*%
G01*
G04 APERTURE LIST*
G04 Aperture macros list*
%AMRoundRect*
0 Rectangle with rounded corners*
0 $1 Rounding radius*
0 $2 $3 $4 $5 $6 $7 $8 $9 X,Y pos of 4 corners*
0 Add a 4 corners polygon primitive as box body*
4,1,4,$2,$3,$4,$5,$6,$7,$8,$9,$2,$3,0*
0 Add four circle primitives for the rounded corners*
1,1,$1+$1,$2,$3*
1,1,$1+$1,$4,$5*
1,1,$1+$1,$6,$7*
1,1,$1+$1,$8,$9*
0 Add four rect primitives between the rounded corners*
20,1,$1+$1,$2,$3,$4,$5,0*
20,1,$1+$1,$4,$5,$6,$7,0*
20,1,$1+$1,$6,$7,$8,$9,0*
20,1,$1+$1,$8,$9,$2,$3,0*%
%AMFreePoly0*
4,1,23,0.500000,-0.750000,0.000000,-0.750000,0.000000,-0.745722,-0.065263,-0.745722,-0.191342,-0.711940,-0.304381,-0.646677,-0.396677,-0.554381,-0.461940,-0.441342,-0.495722,-0.315263,-0.495722,-0.250000,-0.500000,-0.250000,-0.500000,0.250000,-0.495722,0.250000,-0.495722,0.315263,-0.461940,0.441342,-0.396677,0.554381,-0.304381,0.646677,-0.191342,0.711940,-0.065263,0.745722,0.000000,0.745722,
0.000000,0.750000,0.500000,0.750000,0.500000,-0.750000,0.500000,-0.750000,$1*%
%AMFreePoly1*
4,1,23,0.000000,0.745722,0.065263,0.745722,0.191342,0.711940,0.304381,0.646677,0.396677,0.554381,0.461940,0.441342,0.495722,0.315263,0.495722,0.250000,0.500000,0.250000,0.500000,-0.250000,0.495722,-0.250000,0.495722,-0.315263,0.461940,-0.441342,0.396677,-0.554381,0.304381,-0.646677,0.191342,-0.711940,0.065263,-0.745722,0.000000,-0.745722,0.000000,-0.750000,-0.500000,-0.750000,
-0.500000,0.750000,0.000000,0.750000,0.000000,0.745722,0.000000,0.745722,$1*%
G04 Aperture macros list end*
%ADD10C,0.100000*%
%ADD11C,0.150000*%
%ADD12FreePoly0,90.000000*%
%ADD13FreePoly1,90.000000*%
%ADD14RoundRect,0.250000X-0.450000X0.262500X-0.450000X-0.262500X0.450000X-0.262500X0.450000X0.262500X0*%
%ADD15RoundRect,0.200000X0.200000X0.275000X-0.200000X0.275000X-0.200000X-0.275000X0.200000X-0.275000X0*%
%ADD16RoundRect,0.225000X0.225000X0.250000X-0.225000X0.250000X-0.225000X-0.250000X0.225000X-0.250000X0*%
%ADD17RoundRect,0.200000X0.275000X-0.200000X0.275000X0.200000X-0.275000X0.200000X-0.275000X-0.200000X0*%
%ADD18RoundRect,0.250000X0.337500X0.475000X-0.337500X0.475000X-0.337500X-0.475000X0.337500X-0.475000X0*%
%ADD19RoundRect,0.200000X-0.275000X0.200000X-0.275000X-0.200000X0.275000X-0.200000X0.275000X0.200000X0*%
%ADD20RoundRect,0.200000X-0.200000X-0.275000X0.200000X-0.275000X0.200000X0.275000X-0.200000X0.275000X0*%
%ADD21RoundRect,0.250000X-1.500000X-0.550000X1.500000X-0.550000X1.500000X0.550000X-1.500000X0.550000X0*%
%ADD22RoundRect,0.150000X0.150000X-0.512500X0.150000X0.512500X-0.150000X0.512500X-0.150000X-0.512500X0*%
%ADD23RoundRect,0.250000X-0.550000X1.500000X-0.550000X-1.500000X0.550000X-1.500000X0.550000X1.500000X0*%
%ADD24R,1.600000X1.000000*%
%ADD25R,1.500000X1.500000*%
%ADD26C,1.500000*%
%ADD27O,3.900000X3.000000*%
%ADD28R,1.000000X1.700000*%
%ADD29C,3.600000*%
%ADD30C,6.400000*%
%ADD31RoundRect,0.225000X-0.225000X-0.250000X0.225000X-0.250000X0.225000X0.250000X-0.225000X0.250000X0*%
%ADD32RoundRect,0.225000X-0.250000X0.225000X-0.250000X-0.225000X0.250000X-0.225000X0.250000X0.225000X0*%
%ADD33C,1.700000*%
%ADD34R,2.800000X2.200000*%
%ADD35R,2.800000X2.800000*%
%ADD36C,3.000000*%
%ADD37RoundRect,0.150000X-0.825000X-0.150000X0.825000X-0.150000X0.825000X0.150000X-0.825000X0.150000X0*%
%ADD38RoundRect,0.250000X-0.475000X0.337500X-0.475000X-0.337500X0.475000X-0.337500X0.475000X0.337500X0*%
%ADD39RoundRect,0.250000X0.250000X0.475000X-0.250000X0.475000X-0.250000X-0.475000X0.250000X-0.475000X0*%
%ADD40RoundRect,0.250000X0.412500X0.650000X-0.412500X0.650000X-0.412500X-0.650000X0.412500X-0.650000X0*%
%ADD41RoundRect,0.250000X-0.457500X-0.445000X0.457500X-0.445000X0.457500X0.445000X-0.457500X0.445000X0*%
%ADD42RoundRect,0.250000X0.625000X-0.312500X0.625000X0.312500X-0.625000X0.312500X-0.625000X-0.312500X0*%
%ADD43RoundRect,0.249999X0.640001X-0.750001X0.640001X0.750001X-0.640001X0.750001X-0.640001X-0.750001X0*%
%ADD44RoundRect,0.225000X0.250000X-0.225000X0.250000X0.225000X-0.250000X0.225000X-0.250000X-0.225000X0*%
%ADD45RoundRect,0.250000X-0.445000X0.457500X-0.445000X-0.457500X0.445000X-0.457500X0.445000X0.457500X0*%
%ADD46RoundRect,0.250000X0.475000X-0.250000X0.475000X0.250000X-0.475000X0.250000X-0.475000X-0.250000X0*%
%ADD47RoundRect,0.250000X-0.325000X-1.100000X0.325000X-1.100000X0.325000X1.100000X-0.325000X1.100000X0*%
%ADD48RoundRect,0.250000X-0.950000X0.750000X-0.950000X-0.750000X0.950000X-0.750000X0.950000X0.750000X0*%
%ADD49RoundRect,0.250000X0.250000X-0.250000X0.250000X0.250000X-0.250000X0.250000X-0.250000X-0.250000X0*%
%ADD50C,1.000000*%
%ADD51R,2.000000X1.500000*%
%ADD52O,2.000000X1.500000*%
%ADD53R,1.700000X1.700000*%
%ADD54RoundRect,0.125000X0.600000X0.125000X-0.600000X0.125000X-0.600000X-0.125000X0.600000X-0.125000X0*%
%ADD55R,1.570000X1.890000*%
%ADD56RoundRect,0.250000X-0.412500X-0.650000X0.412500X-0.650000X0.412500X0.650000X-0.412500X0.650000X0*%
%ADD57RoundRect,0.250000X0.550000X-1.500000X0.550000X1.500000X-0.550000X1.500000X-0.550000X-1.500000X0*%
%ADD58RoundRect,0.150000X0.150000X-0.825000X0.150000X0.825000X-0.150000X0.825000X-0.150000X-0.825000X0*%
%ADD59C,1.600000*%
%ADD60C,3.400000*%
%ADD61C,2.900000*%
%ADD62R,2.200000X2.800000*%
%ADD63RoundRect,0.100000X0.100000X-0.637500X0.100000X0.637500X-0.100000X0.637500X-0.100000X-0.637500X0*%
%ADD64RoundRect,0.250000X0.445000X-0.457500X0.445000X0.457500X-0.445000X0.457500X-0.445000X-0.457500X0*%
%ADD65RoundRect,0.250000X-0.475000X0.250000X-0.475000X-0.250000X0.475000X-0.250000X0.475000X0.250000X0*%
%ADD66RoundRect,0.250000X-0.250000X-0.475000X0.250000X-0.475000X0.250000X0.475000X-0.250000X0.475000X0*%
G04 APERTURE END LIST*
D10*
X104583333Y-81862180D02*
X104535714Y-81909800D01*
X104535714Y-81909800D02*
X104392857Y-81957419D01*
X104392857Y-81957419D02*
X104297619Y-81957419D01*
X104297619Y-81957419D02*
X104154762Y-81909800D01*
X104154762Y-81909800D02*
X104059524Y-81814561D01*
X104059524Y-81814561D02*
X104011905Y-81719323D01*
X104011905Y-81719323D02*
X103964286Y-81528847D01*
X103964286Y-81528847D02*
X103964286Y-81385990D01*
X103964286Y-81385990D02*
X104011905Y-81195514D01*
X104011905Y-81195514D02*
X104059524Y-81100276D01*
X104059524Y-81100276D02*
X104154762Y-81005038D01*
X104154762Y-81005038D02*
X104297619Y-80957419D01*
X104297619Y-80957419D02*
X104392857Y-80957419D01*
X104392857Y-80957419D02*
X104535714Y-81005038D01*
X104535714Y-81005038D02*
X104583333Y-81052657D01*
X105202381Y-80957419D02*
X105392857Y-80957419D01*
X105392857Y-80957419D02*
X105488095Y-81005038D01*
X105488095Y-81005038D02*
X105583333Y-81100276D01*
X105583333Y-81100276D02*
X105630952Y-81290752D01*
X105630952Y-81290752D02*
X105630952Y-81624085D01*
X105630952Y-81624085D02*
X105583333Y-81814561D01*
X105583333Y-81814561D02*
X105488095Y-81909800D01*
X105488095Y-81909800D02*
X105392857Y-81957419D01*
X105392857Y-81957419D02*
X105202381Y-81957419D01*
X105202381Y-81957419D02*
X105107143Y-81909800D01*
X105107143Y-81909800D02*
X105011905Y-81814561D01*
X105011905Y-81814561D02*
X104964286Y-81624085D01*
X104964286Y-81624085D02*
X104964286Y-81290752D01*
X104964286Y-81290752D02*
X105011905Y-81100276D01*
X105011905Y-81100276D02*
X105107143Y-81005038D01*
X105107143Y-81005038D02*
X105202381Y-80957419D01*
X106059524Y-81957419D02*
X106059524Y-80957419D01*
X106059524Y-80957419D02*
X106297619Y-80957419D01*
X106297619Y-80957419D02*
X106440476Y-81005038D01*
X106440476Y-81005038D02*
X106535714Y-81100276D01*
X106535714Y-81100276D02*
X106583333Y-81195514D01*
X106583333Y-81195514D02*
X106630952Y-81385990D01*
X106630952Y-81385990D02*
X106630952Y-81528847D01*
X106630952Y-81528847D02*
X106583333Y-81719323D01*
X106583333Y-81719323D02*
X106535714Y-81814561D01*
X106535714Y-81814561D02*
X106440476Y-81909800D01*
X106440476Y-81909800D02*
X106297619Y-81957419D01*
X106297619Y-81957419D02*
X106059524Y-81957419D01*
X107059524Y-81433609D02*
X107392857Y-81433609D01*
X107535714Y-81957419D02*
X107059524Y-81957419D01*
X107059524Y-81957419D02*
X107059524Y-80957419D01*
X107059524Y-80957419D02*
X107535714Y-80957419D01*
X108535714Y-81862180D02*
X108488095Y-81909800D01*
X108488095Y-81909800D02*
X108345238Y-81957419D01*
X108345238Y-81957419D02*
X108250000Y-81957419D01*
X108250000Y-81957419D02*
X108107143Y-81909800D01*
X108107143Y-81909800D02*
X108011905Y-81814561D01*
X108011905Y-81814561D02*
X107964286Y-81719323D01*
X107964286Y-81719323D02*
X107916667Y-81528847D01*
X107916667Y-81528847D02*
X107916667Y-81385990D01*
X107916667Y-81385990D02*
X107964286Y-81195514D01*
X107964286Y-81195514D02*
X108011905Y-81100276D01*
X108011905Y-81100276D02*
X108107143Y-81005038D01*
X108107143Y-81005038D02*
X108250000Y-80957419D01*
X108250000Y-80957419D02*
X108345238Y-80957419D01*
X108345238Y-80957419D02*
X108488095Y-81005038D01*
X108488095Y-81005038D02*
X108535714Y-81052657D01*
X193659800Y-83726190D02*
X193707419Y-83583333D01*
X193707419Y-83583333D02*
X193707419Y-83345238D01*
X193707419Y-83345238D02*
X193659800Y-83250000D01*
X193659800Y-83250000D02*
X193612180Y-83202381D01*
X193612180Y-83202381D02*
X193516942Y-83154762D01*
X193516942Y-83154762D02*
X193421704Y-83154762D01*
X193421704Y-83154762D02*
X193326466Y-83202381D01*
X193326466Y-83202381D02*
X193278847Y-83250000D01*
X193278847Y-83250000D02*
X193231228Y-83345238D01*
X193231228Y-83345238D02*
X193183609Y-83535714D01*
X193183609Y-83535714D02*
X193135990Y-83630952D01*
X193135990Y-83630952D02*
X193088371Y-83678571D01*
X193088371Y-83678571D02*
X192993133Y-83726190D01*
X192993133Y-83726190D02*
X192897895Y-83726190D01*
X192897895Y-83726190D02*
X192802657Y-83678571D01*
X192802657Y-83678571D02*
X192755038Y-83630952D01*
X192755038Y-83630952D02*
X192707419Y-83535714D01*
X192707419Y-83535714D02*
X192707419Y-83297619D01*
X192707419Y-83297619D02*
X192755038Y-83154762D01*
X193183609Y-82726190D02*
X193183609Y-82392857D01*
X193707419Y-82250000D02*
X193707419Y-82726190D01*
X193707419Y-82726190D02*
X192707419Y-82726190D01*
X192707419Y-82726190D02*
X192707419Y-82250000D01*
X193707419Y-81345238D02*
X193707419Y-81821428D01*
X193707419Y-81821428D02*
X192707419Y-81821428D01*
X193183609Y-81011904D02*
X193183609Y-80678571D01*
X193707419Y-80535714D02*
X193707419Y-81011904D01*
X193707419Y-81011904D02*
X192707419Y-81011904D01*
X192707419Y-81011904D02*
X192707419Y-80535714D01*
X193612180Y-79535714D02*
X193659800Y-79583333D01*
X193659800Y-79583333D02*
X193707419Y-79726190D01*
X193707419Y-79726190D02*
X193707419Y-79821428D01*
X193707419Y-79821428D02*
X193659800Y-79964285D01*
X193659800Y-79964285D02*
X193564561Y-80059523D01*
X193564561Y-80059523D02*
X193469323Y-80107142D01*
X193469323Y-80107142D02*
X193278847Y-80154761D01*
X193278847Y-80154761D02*
X193135990Y-80154761D01*
X193135990Y-80154761D02*
X192945514Y-80107142D01*
X192945514Y-80107142D02*
X192850276Y-80059523D01*
X192850276Y-80059523D02*
X192755038Y-79964285D01*
X192755038Y-79964285D02*
X192707419Y-79821428D01*
X192707419Y-79821428D02*
X192707419Y-79726190D01*
X192707419Y-79726190D02*
X192755038Y-79583333D01*
X192755038Y-79583333D02*
X192802657Y-79535714D01*
X192707419Y-79249999D02*
X192707419Y-78678571D01*
X193707419Y-78964285D02*
X192707419Y-78964285D01*
D11*
X141330895Y-83357142D02*
X141330895Y-83833332D01*
X141045180Y-83261904D02*
X142045180Y-83595237D01*
X142045180Y-83595237D02*
X141045180Y-83928570D01*
X141711847Y-84261904D02*
X141045180Y-84261904D01*
X141616609Y-84261904D02*
X141664228Y-84309523D01*
X141664228Y-84309523D02*
X141711847Y-84404761D01*
X141711847Y-84404761D02*
X141711847Y-84547618D01*
X141711847Y-84547618D02*
X141664228Y-84642856D01*
X141664228Y-84642856D02*
X141568990Y-84690475D01*
X141568990Y-84690475D02*
X141045180Y-84690475D01*
X141045180Y-85595237D02*
X141568990Y-85595237D01*
X141568990Y-85595237D02*
X141664228Y-85547618D01*
X141664228Y-85547618D02*
X141711847Y-85452380D01*
X141711847Y-85452380D02*
X141711847Y-85261904D01*
X141711847Y-85261904D02*
X141664228Y-85166666D01*
X141092800Y-85595237D02*
X141045180Y-85499999D01*
X141045180Y-85499999D02*
X141045180Y-85261904D01*
X141045180Y-85261904D02*
X141092800Y-85166666D01*
X141092800Y-85166666D02*
X141188038Y-85119047D01*
X141188038Y-85119047D02*
X141283276Y-85119047D01*
X141283276Y-85119047D02*
X141378514Y-85166666D01*
X141378514Y-85166666D02*
X141426133Y-85261904D01*
X141426133Y-85261904D02*
X141426133Y-85499999D01*
X141426133Y-85499999D02*
X141473752Y-85595237D01*
X141045180Y-86214285D02*
X141092800Y-86119047D01*
X141092800Y-86119047D02*
X141188038Y-86071428D01*
X141188038Y-86071428D02*
X142045180Y-86071428D01*
X141045180Y-86738095D02*
X141092800Y-86642857D01*
X141092800Y-86642857D02*
X141140419Y-86595238D01*
X141140419Y-86595238D02*
X141235657Y-86547619D01*
X141235657Y-86547619D02*
X141521371Y-86547619D01*
X141521371Y-86547619D02*
X141616609Y-86595238D01*
X141616609Y-86595238D02*
X141664228Y-86642857D01*
X141664228Y-86642857D02*
X141711847Y-86738095D01*
X141711847Y-86738095D02*
X141711847Y-86880952D01*
X141711847Y-86880952D02*
X141664228Y-86976190D01*
X141664228Y-86976190D02*
X141616609Y-87023809D01*
X141616609Y-87023809D02*
X141521371Y-87071428D01*
X141521371Y-87071428D02*
X141235657Y-87071428D01*
X141235657Y-87071428D02*
X141140419Y-87023809D01*
X141140419Y-87023809D02*
X141092800Y-86976190D01*
X141092800Y-86976190D02*
X141045180Y-86880952D01*
X141045180Y-86880952D02*
X141045180Y-86738095D01*
X141711847Y-87928571D02*
X140902323Y-87928571D01*
X140902323Y-87928571D02*
X140807085Y-87880952D01*
X140807085Y-87880952D02*
X140759466Y-87833333D01*
X140759466Y-87833333D02*
X140711847Y-87738095D01*
X140711847Y-87738095D02*
X140711847Y-87595238D01*
X140711847Y-87595238D02*
X140759466Y-87500000D01*
X141092800Y-87928571D02*
X141045180Y-87833333D01*
X141045180Y-87833333D02*
X141045180Y-87642857D01*
X141045180Y-87642857D02*
X141092800Y-87547619D01*
X141092800Y-87547619D02*
X141140419Y-87500000D01*
X141140419Y-87500000D02*
X141235657Y-87452381D01*
X141235657Y-87452381D02*
X141521371Y-87452381D01*
X141521371Y-87452381D02*
X141616609Y-87500000D01*
X141616609Y-87500000D02*
X141664228Y-87547619D01*
X141664228Y-87547619D02*
X141711847Y-87642857D01*
X141711847Y-87642857D02*
X141711847Y-87833333D01*
X141711847Y-87833333D02*
X141664228Y-87928571D01*
X142045180Y-89357143D02*
X142045180Y-89547619D01*
X142045180Y-89547619D02*
X141997561Y-89642857D01*
X141997561Y-89642857D02*
X141902323Y-89738095D01*
X141902323Y-89738095D02*
X141711847Y-89785714D01*
X141711847Y-89785714D02*
X141378514Y-89785714D01*
X141378514Y-89785714D02*
X141188038Y-89738095D01*
X141188038Y-89738095D02*
X141092800Y-89642857D01*
X141092800Y-89642857D02*
X141045180Y-89547619D01*
X141045180Y-89547619D02*
X141045180Y-89357143D01*
X141045180Y-89357143D02*
X141092800Y-89261905D01*
X141092800Y-89261905D02*
X141188038Y-89166667D01*
X141188038Y-89166667D02*
X141378514Y-89119048D01*
X141378514Y-89119048D02*
X141711847Y-89119048D01*
X141711847Y-89119048D02*
X141902323Y-89166667D01*
X141902323Y-89166667D02*
X141997561Y-89261905D01*
X141997561Y-89261905D02*
X142045180Y-89357143D01*
X141711847Y-90642857D02*
X141045180Y-90642857D01*
X141711847Y-90214286D02*
X141188038Y-90214286D01*
X141188038Y-90214286D02*
X141092800Y-90261905D01*
X141092800Y-90261905D02*
X141045180Y-90357143D01*
X141045180Y-90357143D02*
X141045180Y-90500000D01*
X141045180Y-90500000D02*
X141092800Y-90595238D01*
X141092800Y-90595238D02*
X141140419Y-90642857D01*
X141711847Y-90976191D02*
X141711847Y-91357143D01*
X142045180Y-91119048D02*
X141188038Y-91119048D01*
X141188038Y-91119048D02*
X141092800Y-91166667D01*
X141092800Y-91166667D02*
X141045180Y-91261905D01*
X141045180Y-91261905D02*
X141045180Y-91357143D01*
X141711847Y-91690477D02*
X140711847Y-91690477D01*
X141664228Y-91690477D02*
X141711847Y-91785715D01*
X141711847Y-91785715D02*
X141711847Y-91976191D01*
X141711847Y-91976191D02*
X141664228Y-92071429D01*
X141664228Y-92071429D02*
X141616609Y-92119048D01*
X141616609Y-92119048D02*
X141521371Y-92166667D01*
X141521371Y-92166667D02*
X141235657Y-92166667D01*
X141235657Y-92166667D02*
X141140419Y-92119048D01*
X141140419Y-92119048D02*
X141092800Y-92071429D01*
X141092800Y-92071429D02*
X141045180Y-91976191D01*
X141045180Y-91976191D02*
X141045180Y-91785715D01*
X141045180Y-91785715D02*
X141092800Y-91690477D01*
X141711847Y-93023810D02*
X141045180Y-93023810D01*
X141711847Y-92595239D02*
X141188038Y-92595239D01*
X141188038Y-92595239D02*
X141092800Y-92642858D01*
X141092800Y-92642858D02*
X141045180Y-92738096D01*
X141045180Y-92738096D02*
X141045180Y-92880953D01*
X141045180Y-92880953D02*
X141092800Y-92976191D01*
X141092800Y-92976191D02*
X141140419Y-93023810D01*
X141711847Y-93357144D02*
X141711847Y-93738096D01*
X142045180Y-93500001D02*
X141188038Y-93500001D01*
X141188038Y-93500001D02*
X141092800Y-93547620D01*
X141092800Y-93547620D02*
X141045180Y-93642858D01*
X141045180Y-93642858D02*
X141045180Y-93738096D01*
D10*
X160900000Y-68639887D02*
X161090476Y-68639887D01*
X161090476Y-68639887D02*
X161185714Y-68687506D01*
X161185714Y-68687506D02*
X161280952Y-68782744D01*
X161280952Y-68782744D02*
X161328571Y-68973220D01*
X161328571Y-68973220D02*
X161328571Y-69306553D01*
X161328571Y-69306553D02*
X161280952Y-69497029D01*
X161280952Y-69497029D02*
X161185714Y-69592268D01*
X161185714Y-69592268D02*
X161090476Y-69639887D01*
X161090476Y-69639887D02*
X160900000Y-69639887D01*
X160900000Y-69639887D02*
X160804762Y-69592268D01*
X160804762Y-69592268D02*
X160709524Y-69497029D01*
X160709524Y-69497029D02*
X160661905Y-69306553D01*
X160661905Y-69306553D02*
X160661905Y-68973220D01*
X160661905Y-68973220D02*
X160709524Y-68782744D01*
X160709524Y-68782744D02*
X160804762Y-68687506D01*
X160804762Y-68687506D02*
X160900000Y-68639887D01*
X161757143Y-68639887D02*
X161757143Y-69449410D01*
X161757143Y-69449410D02*
X161804762Y-69544648D01*
X161804762Y-69544648D02*
X161852381Y-69592268D01*
X161852381Y-69592268D02*
X161947619Y-69639887D01*
X161947619Y-69639887D02*
X162138095Y-69639887D01*
X162138095Y-69639887D02*
X162233333Y-69592268D01*
X162233333Y-69592268D02*
X162280952Y-69544648D01*
X162280952Y-69544648D02*
X162328571Y-69449410D01*
X162328571Y-69449410D02*
X162328571Y-68639887D01*
X162661905Y-68639887D02*
X163233333Y-68639887D01*
X162947619Y-69639887D02*
X162947619Y-68639887D01*
X168457419Y-96404761D02*
X167457419Y-96404761D01*
X167790752Y-95928571D02*
X168457419Y-95928571D01*
X167885990Y-95928571D02*
X167838371Y-95880952D01*
X167838371Y-95880952D02*
X167790752Y-95785714D01*
X167790752Y-95785714D02*
X167790752Y-95642857D01*
X167790752Y-95642857D02*
X167838371Y-95547619D01*
X167838371Y-95547619D02*
X167933609Y-95500000D01*
X167933609Y-95500000D02*
X168457419Y-95500000D01*
X167790752Y-95023809D02*
X168790752Y-95023809D01*
X167838371Y-95023809D02*
X167790752Y-94928571D01*
X167790752Y-94928571D02*
X167790752Y-94738095D01*
X167790752Y-94738095D02*
X167838371Y-94642857D01*
X167838371Y-94642857D02*
X167885990Y-94595238D01*
X167885990Y-94595238D02*
X167981228Y-94547619D01*
X167981228Y-94547619D02*
X168266942Y-94547619D01*
X168266942Y-94547619D02*
X168362180Y-94595238D01*
X168362180Y-94595238D02*
X168409800Y-94642857D01*
X168409800Y-94642857D02*
X168457419Y-94738095D01*
X168457419Y-94738095D02*
X168457419Y-94928571D01*
X168457419Y-94928571D02*
X168409800Y-95023809D01*
X167790752Y-93690476D02*
X168457419Y-93690476D01*
X167790752Y-94119047D02*
X168314561Y-94119047D01*
X168314561Y-94119047D02*
X168409800Y-94071428D01*
X168409800Y-94071428D02*
X168457419Y-93976190D01*
X168457419Y-93976190D02*
X168457419Y-93833333D01*
X168457419Y-93833333D02*
X168409800Y-93738095D01*
X168409800Y-93738095D02*
X168362180Y-93690476D01*
X167790752Y-93357142D02*
X167790752Y-92976190D01*
X167457419Y-93214285D02*
X168314561Y-93214285D01*
X168314561Y-93214285D02*
X168409800Y-93166666D01*
X168409800Y-93166666D02*
X168457419Y-93071428D01*
X168457419Y-93071428D02*
X168457419Y-92976190D01*
X167457419Y-92023808D02*
X168457419Y-91690475D01*
X168457419Y-91690475D02*
X167457419Y-91357142D01*
X168457419Y-90880951D02*
X168409800Y-90976189D01*
X168409800Y-90976189D02*
X168362180Y-91023808D01*
X168362180Y-91023808D02*
X168266942Y-91071427D01*
X168266942Y-91071427D02*
X167981228Y-91071427D01*
X167981228Y-91071427D02*
X167885990Y-91023808D01*
X167885990Y-91023808D02*
X167838371Y-90976189D01*
X167838371Y-90976189D02*
X167790752Y-90880951D01*
X167790752Y-90880951D02*
X167790752Y-90738094D01*
X167790752Y-90738094D02*
X167838371Y-90642856D01*
X167838371Y-90642856D02*
X167885990Y-90595237D01*
X167885990Y-90595237D02*
X167981228Y-90547618D01*
X167981228Y-90547618D02*
X168266942Y-90547618D01*
X168266942Y-90547618D02*
X168362180Y-90595237D01*
X168362180Y-90595237D02*
X168409800Y-90642856D01*
X168409800Y-90642856D02*
X168457419Y-90738094D01*
X168457419Y-90738094D02*
X168457419Y-90880951D01*
X168457419Y-89976189D02*
X168409800Y-90071427D01*
X168409800Y-90071427D02*
X168314561Y-90119046D01*
X168314561Y-90119046D02*
X167457419Y-90119046D01*
X168362180Y-89595236D02*
X168409800Y-89547617D01*
X168409800Y-89547617D02*
X168457419Y-89595236D01*
X168457419Y-89595236D02*
X168409800Y-89642855D01*
X168409800Y-89642855D02*
X168362180Y-89595236D01*
X168362180Y-89595236D02*
X168457419Y-89595236D01*
X185476191Y-69707419D02*
X185476191Y-68707419D01*
X185952381Y-69707419D02*
X185952381Y-68707419D01*
X185952381Y-68707419D02*
X186523809Y-69707419D01*
X186523809Y-69707419D02*
X186523809Y-68707419D01*
X147214285Y-81957419D02*
X147404761Y-81957419D01*
X147404761Y-81957419D02*
X147499999Y-82005038D01*
X147499999Y-82005038D02*
X147595237Y-82100276D01*
X147595237Y-82100276D02*
X147642856Y-82290752D01*
X147642856Y-82290752D02*
X147642856Y-82624085D01*
X147642856Y-82624085D02*
X147595237Y-82814561D01*
X147595237Y-82814561D02*
X147499999Y-82909800D01*
X147499999Y-82909800D02*
X147404761Y-82957419D01*
X147404761Y-82957419D02*
X147214285Y-82957419D01*
X147214285Y-82957419D02*
X147119047Y-82909800D01*
X147119047Y-82909800D02*
X147023809Y-82814561D01*
X147023809Y-82814561D02*
X146976190Y-82624085D01*
X146976190Y-82624085D02*
X146976190Y-82290752D01*
X146976190Y-82290752D02*
X147023809Y-82100276D01*
X147023809Y-82100276D02*
X147119047Y-82005038D01*
X147119047Y-82005038D02*
X147214285Y-81957419D01*
X148499999Y-82290752D02*
X148499999Y-82957419D01*
X148071428Y-82290752D02*
X148071428Y-82814561D01*
X148071428Y-82814561D02*
X148119047Y-82909800D01*
X148119047Y-82909800D02*
X148214285Y-82957419D01*
X148214285Y-82957419D02*
X148357142Y-82957419D01*
X148357142Y-82957419D02*
X148452380Y-82909800D01*
X148452380Y-82909800D02*
X148499999Y-82862180D01*
X148833333Y-82290752D02*
X149214285Y-82290752D01*
X148976190Y-81957419D02*
X148976190Y-82814561D01*
X148976190Y-82814561D02*
X149023809Y-82909800D01*
X149023809Y-82909800D02*
X149119047Y-82957419D01*
X149119047Y-82957419D02*
X149214285Y-82957419D01*
X149547619Y-82290752D02*
X149547619Y-83290752D01*
X149547619Y-82338371D02*
X149642857Y-82290752D01*
X149642857Y-82290752D02*
X149833333Y-82290752D01*
X149833333Y-82290752D02*
X149928571Y-82338371D01*
X149928571Y-82338371D02*
X149976190Y-82385990D01*
X149976190Y-82385990D02*
X150023809Y-82481228D01*
X150023809Y-82481228D02*
X150023809Y-82766942D01*
X150023809Y-82766942D02*
X149976190Y-82862180D01*
X149976190Y-82862180D02*
X149928571Y-82909800D01*
X149928571Y-82909800D02*
X149833333Y-82957419D01*
X149833333Y-82957419D02*
X149642857Y-82957419D01*
X149642857Y-82957419D02*
X149547619Y-82909800D01*
X150880952Y-82290752D02*
X150880952Y-82957419D01*
X150452381Y-82290752D02*
X150452381Y-82814561D01*
X150452381Y-82814561D02*
X150500000Y-82909800D01*
X150500000Y-82909800D02*
X150595238Y-82957419D01*
X150595238Y-82957419D02*
X150738095Y-82957419D01*
X150738095Y-82957419D02*
X150833333Y-82909800D01*
X150833333Y-82909800D02*
X150880952Y-82862180D01*
X151214286Y-82290752D02*
X151595238Y-82290752D01*
X151357143Y-81957419D02*
X151357143Y-82814561D01*
X151357143Y-82814561D02*
X151404762Y-82909800D01*
X151404762Y-82909800D02*
X151500000Y-82957419D01*
X151500000Y-82957419D02*
X151595238Y-82957419D01*
X152547620Y-81957419D02*
X152880953Y-82957419D01*
X152880953Y-82957419D02*
X153214286Y-81957419D01*
X153690477Y-82957419D02*
X153595239Y-82909800D01*
X153595239Y-82909800D02*
X153547620Y-82862180D01*
X153547620Y-82862180D02*
X153500001Y-82766942D01*
X153500001Y-82766942D02*
X153500001Y-82481228D01*
X153500001Y-82481228D02*
X153547620Y-82385990D01*
X153547620Y-82385990D02*
X153595239Y-82338371D01*
X153595239Y-82338371D02*
X153690477Y-82290752D01*
X153690477Y-82290752D02*
X153833334Y-82290752D01*
X153833334Y-82290752D02*
X153928572Y-82338371D01*
X153928572Y-82338371D02*
X153976191Y-82385990D01*
X153976191Y-82385990D02*
X154023810Y-82481228D01*
X154023810Y-82481228D02*
X154023810Y-82766942D01*
X154023810Y-82766942D02*
X153976191Y-82862180D01*
X153976191Y-82862180D02*
X153928572Y-82909800D01*
X153928572Y-82909800D02*
X153833334Y-82957419D01*
X153833334Y-82957419D02*
X153690477Y-82957419D01*
X154595239Y-82957419D02*
X154500001Y-82909800D01*
X154500001Y-82909800D02*
X154452382Y-82814561D01*
X154452382Y-82814561D02*
X154452382Y-81957419D01*
X154976192Y-82862180D02*
X155023811Y-82909800D01*
X155023811Y-82909800D02*
X154976192Y-82957419D01*
X154976192Y-82957419D02*
X154928573Y-82909800D01*
X154928573Y-82909800D02*
X154976192Y-82862180D01*
X154976192Y-82862180D02*
X154976192Y-82957419D01*
%TO.C,JP7*%
G36*
X105542423Y-101461926D02*
G01*
X107042423Y-101461926D01*
X107042423Y-101161926D01*
X105542423Y-101161926D01*
X105542423Y-101461926D01*
G37*
%TO.C,JP9*%
G36*
X97750000Y-101225000D02*
G01*
X99250000Y-101225000D01*
X99250000Y-100925000D01*
X97750000Y-100925000D01*
X97750000Y-101225000D01*
G37*
%TO.C,JP10*%
G36*
X100277440Y-101222276D02*
G01*
X101777440Y-101222276D01*
X101777440Y-100922276D01*
X100277440Y-100922276D01*
X100277440Y-101222276D01*
G37*
%TO.C,JP8*%
G36*
X102898094Y-101250781D02*
G01*
X104398094Y-101250781D01*
X104398094Y-100950781D01*
X102898094Y-100950781D01*
X102898094Y-101250781D01*
G37*
%TO.C,JP6*%
G36*
X95250000Y-99375000D02*
G01*
X96750000Y-99375000D01*
X96750000Y-99075000D01*
X95250000Y-99075000D01*
X95250000Y-99375000D01*
G37*
%TD*%
D12*
%TO.C,JP7*%
X106292423Y-101961926D03*
D13*
X106292423Y-100661926D03*
%TD*%
D14*
%TO.C,R9*%
X159624638Y-110776118D03*
X159624638Y-112601118D03*
%TD*%
D15*
%TO.C,R1*%
X84172239Y-87311812D03*
X82522239Y-87311812D03*
%TD*%
D16*
%TO.C,C69*%
X112109636Y-111534553D03*
X110559636Y-111534553D03*
%TD*%
D17*
%TO.C,R47*%
X131684601Y-103800000D03*
X131684601Y-102150000D03*
%TD*%
D16*
%TO.C,C50*%
X87191191Y-88817087D03*
X85641191Y-88817087D03*
%TD*%
D18*
%TO.C,C13*%
X159847500Y-108880000D03*
X157772500Y-108880000D03*
%TD*%
D16*
%TO.C,C59*%
X126278310Y-89286421D03*
X124728310Y-89286421D03*
%TD*%
D12*
%TO.C,JP9*%
X98500000Y-101725000D03*
D13*
X98500000Y-100425000D03*
%TD*%
D17*
%TO.C,R14*%
X192410000Y-96505000D03*
X192410000Y-94855000D03*
%TD*%
%TO.C,R63*%
X116592498Y-117167069D03*
X116592498Y-115517069D03*
%TD*%
D19*
%TO.C,R36*%
X104500000Y-97000000D03*
X104500000Y-98650000D03*
%TD*%
D20*
%TO.C,R12*%
X167876988Y-101268579D03*
X169526988Y-101268579D03*
%TD*%
%TO.C,R62*%
X111484636Y-113534553D03*
X113134636Y-113534553D03*
%TD*%
D21*
%TO.C,C56*%
X129484601Y-97500000D03*
X134884601Y-97500000D03*
%TD*%
D20*
%TO.C,R51*%
X124675000Y-87500000D03*
X126325000Y-87500000D03*
%TD*%
D22*
%TO.C,D1*%
X169952940Y-105922500D03*
X171852940Y-105922500D03*
X170902940Y-103647500D03*
%TD*%
D23*
%TO.C,C74*%
X103160000Y-114280000D03*
X103160000Y-119680000D03*
%TD*%
D12*
%TO.C,JP10*%
X101027440Y-101722276D03*
D13*
X101027440Y-100422276D03*
%TD*%
D20*
%TO.C,R28*%
X105890000Y-98785000D03*
X107540000Y-98785000D03*
%TD*%
D15*
%TO.C,R56*%
X113509601Y-80000000D03*
X111859601Y-80000000D03*
%TD*%
%TO.C,R58*%
X119509601Y-80000000D03*
X117859601Y-80000000D03*
%TD*%
D24*
%TO.C,SW3*%
X189700000Y-79000000D03*
X189700000Y-81500000D03*
X189700000Y-84000000D03*
X187300000Y-79000000D03*
X187300000Y-81500000D03*
X187300000Y-84000000D03*
%TD*%
D25*
%TO.C,RV1*%
X187532500Y-96500000D03*
D26*
X187532500Y-98500000D03*
X187532500Y-88500000D03*
X187532500Y-94500000D03*
X187532500Y-92500000D03*
X187532500Y-90500000D03*
D27*
X176532500Y-99300000D03*
X176532500Y-87700000D03*
%TD*%
D28*
%TO.C,BOOT1*%
X83000000Y-97000000D03*
X83000000Y-90700000D03*
X86800000Y-97000000D03*
X86800000Y-90700000D03*
%TD*%
D15*
%TO.C,R43*%
X125509601Y-102500000D03*
X123859601Y-102500000D03*
%TD*%
D29*
%TO.C,H3*%
X191850000Y-127670000D03*
D30*
X191850000Y-127670000D03*
%TD*%
D15*
%TO.C,R59*%
X113435000Y-120880000D03*
X111785000Y-120880000D03*
%TD*%
D31*
%TO.C,C6*%
X76301314Y-88823338D03*
X77851314Y-88823338D03*
%TD*%
D20*
%TO.C,R31*%
X108890000Y-97285000D03*
X110540000Y-97285000D03*
%TD*%
D32*
%TO.C,C16*%
X195610000Y-103305000D03*
X195610000Y-104855000D03*
%TD*%
D33*
%TO.C,J4*%
X167000000Y-74000000D03*
X167000000Y-81000000D03*
D34*
X170700000Y-74900000D03*
X163300000Y-72900000D03*
D35*
X163300000Y-82300000D03*
%TD*%
D31*
%TO.C,C68*%
X108659993Y-120280000D03*
X110209993Y-120280000D03*
%TD*%
D32*
%TO.C,C60*%
X119302063Y-91167462D03*
X119302063Y-92717462D03*
%TD*%
D36*
%TO.C,TP4*%
X154930000Y-101960000D03*
%TD*%
D17*
%TO.C,R50*%
X130184601Y-103800000D03*
X130184601Y-102150000D03*
%TD*%
D37*
%TO.C,U5*%
X160665000Y-103437500D03*
X160665000Y-104707500D03*
X160665000Y-105977500D03*
X160665000Y-107247500D03*
X165615000Y-107247500D03*
X165615000Y-105977500D03*
X165615000Y-104707500D03*
X165615000Y-103437500D03*
%TD*%
D32*
%TO.C,C54*%
X133184601Y-102200000D03*
X133184601Y-103750000D03*
%TD*%
D12*
%TO.C,JP8*%
X103648094Y-101750781D03*
D13*
X103648094Y-100450781D03*
%TD*%
D38*
%TO.C,C11*%
X157695000Y-116247500D03*
X157695000Y-118322500D03*
%TD*%
D17*
%TO.C,R46*%
X130184601Y-85325000D03*
X130184601Y-83675000D03*
%TD*%
D36*
%TO.C,TP3*%
X162632000Y-100480000D03*
%TD*%
%TO.C,TP6*%
X144160000Y-119730000D03*
%TD*%
D15*
%TO.C,R45*%
X126325000Y-85500000D03*
X124675000Y-85500000D03*
%TD*%
D39*
%TO.C,C70*%
X114709636Y-119034553D03*
X112809636Y-119034553D03*
%TD*%
D40*
%TO.C,C2*%
X156812500Y-69750000D03*
X153687500Y-69750000D03*
%TD*%
D32*
%TO.C,C37*%
X108500000Y-89050000D03*
X108500000Y-90600000D03*
%TD*%
D41*
%TO.C,C66*%
X116907136Y-119034553D03*
X119612136Y-119034553D03*
%TD*%
D29*
%TO.C,H4*%
X191850000Y-71790000D03*
D30*
X191850000Y-71790000D03*
%TD*%
D15*
%TO.C,R7*%
X146042338Y-115730707D03*
X144392338Y-115730707D03*
%TD*%
D23*
%TO.C,C64*%
X115684601Y-98800000D03*
X115684601Y-104200000D03*
%TD*%
D36*
%TO.C,TP2*%
X78820000Y-130845000D03*
%TD*%
D17*
%TO.C,R15*%
X188910000Y-106000000D03*
X188910000Y-104350000D03*
%TD*%
D42*
%TO.C,R11*%
X167994687Y-105796147D03*
X167994687Y-102871147D03*
%TD*%
D19*
%TO.C,R18*%
X187110000Y-104325000D03*
X187110000Y-105975000D03*
%TD*%
D43*
%TO.C,U3*%
X140385000Y-113710000D03*
X142925000Y-113710000D03*
X145465000Y-113710000D03*
X148005000Y-113710000D03*
X148005000Y-104180000D03*
X145465000Y-104180000D03*
X142925000Y-104180000D03*
X140385000Y-104180000D03*
%TD*%
D33*
%TO.C,J2*%
X178500000Y-74000000D03*
X178500000Y-81000000D03*
D34*
X182200000Y-74900000D03*
X174800000Y-72900000D03*
D35*
X174800000Y-82300000D03*
%TD*%
D44*
%TO.C,C31*%
X96000000Y-93600000D03*
X96000000Y-92050000D03*
%TD*%
D31*
%TO.C,C36*%
X105630000Y-85360000D03*
X107180000Y-85360000D03*
%TD*%
D45*
%TO.C,C18*%
X188610000Y-107775000D03*
X188610000Y-110480000D03*
%TD*%
D19*
%TO.C,R48*%
X133184601Y-83675000D03*
X133184601Y-85325000D03*
%TD*%
D15*
%TO.C,R55*%
X113509601Y-106000000D03*
X111859601Y-106000000D03*
%TD*%
D20*
%TO.C,R2*%
X76247327Y-87338407D03*
X77897327Y-87338407D03*
%TD*%
D28*
%TO.C,EN1*%
X80500000Y-90700000D03*
X80500000Y-97000000D03*
X76700000Y-90700000D03*
X76700000Y-97000000D03*
%TD*%
D16*
%TO.C,C62*%
X122972188Y-89245030D03*
X121422188Y-89245030D03*
%TD*%
D46*
%TO.C,C33*%
X91900000Y-89750000D03*
X91900000Y-87850000D03*
%TD*%
D47*
%TO.C,C3*%
X84421063Y-79859846D03*
X87371063Y-79859846D03*
%TD*%
D48*
%TO.C,Y1*%
X93000000Y-92475000D03*
X93000000Y-96175000D03*
%TD*%
D49*
%TO.C,MK1*%
X194910000Y-99980000D03*
D50*
X194910000Y-98080000D03*
%TD*%
D16*
%TO.C,C58*%
X125459601Y-98500000D03*
X123909601Y-98500000D03*
%TD*%
D15*
%TO.C,R54*%
X123009601Y-87500000D03*
X121359601Y-87500000D03*
%TD*%
D51*
%TO.C,U4*%
X154803000Y-117835000D03*
D52*
X154803000Y-115295000D03*
X154803000Y-112755000D03*
X154803000Y-110215000D03*
%TD*%
D22*
%TO.C,U6*%
X190560000Y-104112500D03*
X191510000Y-104112500D03*
X192460000Y-104112500D03*
X192460000Y-101837500D03*
X190560000Y-101837500D03*
%TD*%
D53*
%TO.C,P1*%
X157560000Y-126400000D03*
D33*
X157560000Y-123860000D03*
X155020000Y-126400000D03*
X155020000Y-123860000D03*
X152480000Y-126400000D03*
X152480000Y-123860000D03*
X149940000Y-126400000D03*
X149940000Y-123860000D03*
X147400000Y-126400000D03*
X147400000Y-123860000D03*
X144860000Y-126400000D03*
X144860000Y-123860000D03*
X142320000Y-126400000D03*
X142320000Y-123860000D03*
X139780000Y-126400000D03*
X139780000Y-123860000D03*
X137240000Y-126400000D03*
X137240000Y-123860000D03*
X134700000Y-126400000D03*
X134700000Y-123860000D03*
X132160000Y-126400000D03*
X132160000Y-123860000D03*
X129620000Y-126400000D03*
X129620000Y-123860000D03*
X127080000Y-126400000D03*
X127080000Y-123860000D03*
X124540000Y-126400000D03*
X124540000Y-123860000D03*
X122000000Y-126400000D03*
X122000000Y-123860000D03*
X119460000Y-126400000D03*
X119460000Y-123860000D03*
X116920000Y-126400000D03*
X116920000Y-123860000D03*
X114380000Y-126400000D03*
X114380000Y-123860000D03*
X111840000Y-126400000D03*
X111840000Y-123860000D03*
X109300000Y-126400000D03*
X109300000Y-123860000D03*
X106760000Y-126400000D03*
X106760000Y-123860000D03*
X104220000Y-126400000D03*
X104220000Y-123860000D03*
X101680000Y-126400000D03*
X101680000Y-123860000D03*
X99140000Y-126400000D03*
X99140000Y-123860000D03*
X96600000Y-126400000D03*
X96600000Y-123860000D03*
X94060000Y-126400000D03*
X94060000Y-123860000D03*
X91520000Y-126400000D03*
X91520000Y-123860000D03*
X88980000Y-126400000D03*
X88980000Y-123860000D03*
X86440000Y-126400000D03*
X86440000Y-123860000D03*
X83900000Y-126400000D03*
X83900000Y-123860000D03*
X81360000Y-126400000D03*
X81360000Y-123860000D03*
X78820000Y-126400000D03*
X78820000Y-123860000D03*
%TD*%
D36*
%TO.C,TP9*%
X139610000Y-97480000D03*
%TD*%
D54*
%TO.C,U14*%
X114540000Y-117000000D03*
X114540000Y-116350000D03*
X114540000Y-115700000D03*
X114540000Y-115050000D03*
X110240000Y-115050000D03*
X110240000Y-115700000D03*
X110240000Y-116350000D03*
X110240000Y-117000000D03*
D55*
X112390000Y-116025000D03*
%TD*%
D44*
%TO.C,C55*%
X131684601Y-85275000D03*
X131684601Y-83725000D03*
%TD*%
D56*
%TO.C,C1*%
X156437500Y-129500000D03*
X159562500Y-129500000D03*
%TD*%
D19*
%TO.C,R34*%
X99500000Y-97000000D03*
X99500000Y-98650000D03*
%TD*%
D36*
%TO.C,TP10*%
X194210000Y-89980000D03*
%TD*%
D17*
%TO.C,R8*%
X150485000Y-104055000D03*
X150485000Y-102405000D03*
%TD*%
%TO.C,R60*%
X114578740Y-113559563D03*
X114578740Y-111909563D03*
%TD*%
D47*
%TO.C,C4*%
X84421063Y-83359846D03*
X87371063Y-83359846D03*
%TD*%
D15*
%TO.C,R3*%
X87237701Y-87317087D03*
X85587701Y-87317087D03*
%TD*%
D57*
%TO.C,C72*%
X88660000Y-119680000D03*
X88660000Y-114280000D03*
%TD*%
D36*
%TO.C,TP8*%
X125810000Y-105480000D03*
%TD*%
D15*
%TO.C,R29*%
X107540000Y-97285000D03*
X105890000Y-97285000D03*
%TD*%
D19*
%TO.C,R35*%
X101000000Y-97000000D03*
X101000000Y-98650000D03*
%TD*%
D15*
%TO.C,R61*%
X110264636Y-118680000D03*
X108614636Y-118680000D03*
%TD*%
D17*
%TO.C,R64*%
X113600000Y-96225000D03*
X113600000Y-94575000D03*
%TD*%
D58*
%TO.C,U13*%
X120897063Y-96382943D03*
X122167063Y-96382943D03*
X123437063Y-96382943D03*
X124707063Y-96382943D03*
X124707063Y-91432943D03*
X123437063Y-91432943D03*
X122167063Y-91432943D03*
X120897063Y-91432943D03*
%TD*%
D57*
%TO.C,C41*%
X96000000Y-85200000D03*
X96000000Y-79800000D03*
%TD*%
%TO.C,C65*%
X115684601Y-87200000D03*
X115684601Y-81800000D03*
%TD*%
D41*
%TO.C,C67*%
X116357136Y-113284553D03*
X119062136Y-113284553D03*
%TD*%
D31*
%TO.C,C52*%
X120692051Y-102500000D03*
X122242051Y-102500000D03*
%TD*%
D29*
%TO.C,H2*%
X80090000Y-81950000D03*
D30*
X80090000Y-81950000D03*
%TD*%
D17*
%TO.C,R33*%
X98000000Y-98650000D03*
X98000000Y-97000000D03*
%TD*%
D19*
%TO.C,R52*%
X134684601Y-83675000D03*
X134684601Y-85325000D03*
%TD*%
D59*
%TO.C,J1*%
X170260000Y-120830000D03*
X177880000Y-125910000D03*
D60*
X177880000Y-117020000D03*
X170260000Y-116385000D03*
D61*
X174070000Y-112570000D03*
X182320000Y-122740000D03*
%TD*%
D19*
%TO.C,R32*%
X102500000Y-97000000D03*
X102500000Y-98650000D03*
%TD*%
D32*
%TO.C,C30*%
X96000000Y-95050000D03*
X96000000Y-96600000D03*
%TD*%
D36*
%TO.C,TP7*%
X134410000Y-110280000D03*
%TD*%
D21*
%TO.C,C57*%
X129484601Y-90000000D03*
X134884601Y-90000000D03*
%TD*%
D20*
%TO.C,R49*%
X123859601Y-100500000D03*
X125509601Y-100500000D03*
%TD*%
D31*
%TO.C,C53*%
X121409601Y-85500000D03*
X122959601Y-85500000D03*
%TD*%
D33*
%TO.C,J3*%
X82000000Y-106500000D03*
X89000000Y-106500000D03*
D62*
X82900000Y-102800000D03*
X80900000Y-110200000D03*
D35*
X90300000Y-110200000D03*
%TD*%
D31*
%TO.C,C5*%
X85643119Y-85735431D03*
X87193119Y-85735431D03*
%TD*%
D63*
%TO.C,U10*%
X98300000Y-94550000D03*
X98950000Y-94550000D03*
X99600000Y-94550000D03*
X100250000Y-94550000D03*
X100900000Y-94550000D03*
X101550000Y-94550000D03*
X102200000Y-94550000D03*
X102850000Y-94550000D03*
X103500000Y-94550000D03*
X104150000Y-94550000D03*
X104800000Y-94550000D03*
X105450000Y-94550000D03*
X106100000Y-94550000D03*
X106750000Y-94550000D03*
X106750000Y-88825000D03*
X106100000Y-88825000D03*
X105450000Y-88825000D03*
X104800000Y-88825000D03*
X104150000Y-88825000D03*
X103500000Y-88825000D03*
X102850000Y-88825000D03*
X102200000Y-88825000D03*
X101550000Y-88825000D03*
X100900000Y-88825000D03*
X100250000Y-88825000D03*
X99600000Y-88825000D03*
X98950000Y-88825000D03*
X98300000Y-88825000D03*
%TD*%
D15*
%TO.C,R4*%
X110150000Y-94575000D03*
X108500000Y-94575000D03*
%TD*%
D53*
%TO.C,P2*%
X157560000Y-75600000D03*
D33*
X157560000Y-73060000D03*
X155020000Y-75600000D03*
X155020000Y-73060000D03*
X152480000Y-75600000D03*
X152480000Y-73060000D03*
X149940000Y-75600000D03*
X149940000Y-73060000D03*
X147400000Y-75600000D03*
X147400000Y-73060000D03*
X144860000Y-75600000D03*
X144860000Y-73060000D03*
X142320000Y-75600000D03*
X142320000Y-73060000D03*
X139780000Y-75600000D03*
X139780000Y-73060000D03*
X137240000Y-75600000D03*
X137240000Y-73060000D03*
X134700000Y-75600000D03*
X134700000Y-73060000D03*
X132160000Y-75600000D03*
X132160000Y-73060000D03*
X129620000Y-75600000D03*
X129620000Y-73060000D03*
X127080000Y-75600000D03*
X127080000Y-73060000D03*
X124540000Y-75600000D03*
X124540000Y-73060000D03*
X122000000Y-75600000D03*
X122000000Y-73060000D03*
X119460000Y-75600000D03*
X119460000Y-73060000D03*
X116920000Y-75600000D03*
X116920000Y-73060000D03*
X114380000Y-75600000D03*
X114380000Y-73060000D03*
X111840000Y-75600000D03*
X111840000Y-73060000D03*
X109300000Y-75600000D03*
X109300000Y-73060000D03*
X106760000Y-75600000D03*
X106760000Y-73060000D03*
X104220000Y-75600000D03*
X104220000Y-73060000D03*
X101680000Y-75600000D03*
X101680000Y-73060000D03*
X99140000Y-75600000D03*
X99140000Y-73060000D03*
X96600000Y-75600000D03*
X96600000Y-73060000D03*
X94060000Y-75600000D03*
X94060000Y-73060000D03*
X91520000Y-75600000D03*
X91520000Y-73060000D03*
X88980000Y-75600000D03*
X88980000Y-73060000D03*
X86440000Y-75600000D03*
X86440000Y-73060000D03*
X83900000Y-75600000D03*
X83900000Y-73060000D03*
X81360000Y-75600000D03*
X81360000Y-73060000D03*
X78820000Y-75600000D03*
X78820000Y-73060000D03*
%TD*%
D44*
%TO.C,C32*%
X93920000Y-89620000D03*
X93920000Y-88070000D03*
%TD*%
D15*
%TO.C,R57*%
X119509601Y-106000000D03*
X117859601Y-106000000D03*
%TD*%
D25*
%TO.C,RV2*%
X162579279Y-95048839D03*
D26*
X162579279Y-97048839D03*
X162579279Y-87048839D03*
X162579279Y-93048839D03*
X162579279Y-91048839D03*
X162579279Y-89048839D03*
D27*
X151579279Y-97848839D03*
X151579279Y-86248839D03*
%TD*%
D64*
%TO.C,C15*%
X190410000Y-99232500D03*
X190410000Y-96527500D03*
%TD*%
D16*
%TO.C,C61*%
X122242051Y-98523177D03*
X120692051Y-98523177D03*
%TD*%
D17*
%TO.C,R10*%
X167910000Y-108955320D03*
X167910000Y-107305320D03*
%TD*%
D29*
%TO.C,H1*%
X80090000Y-117510000D03*
D30*
X80090000Y-117510000D03*
%TD*%
D36*
%TO.C,TP5*%
X174810000Y-107550000D03*
%TD*%
D19*
%TO.C,R17*%
X194010000Y-103150000D03*
X194010000Y-104800000D03*
%TD*%
D15*
%TO.C,R13*%
X148735000Y-119980000D03*
X147085000Y-119980000D03*
%TD*%
D12*
%TO.C,JP6*%
X96000000Y-99875000D03*
D13*
X96000000Y-98575000D03*
%TD*%
D31*
%TO.C,C71*%
X108534636Y-113534553D03*
X110084636Y-113534553D03*
%TD*%
D36*
%TO.C,TP1*%
X78820000Y-68615000D03*
%TD*%
D65*
%TO.C,C40*%
X110500000Y-88875000D03*
X110500000Y-90775000D03*
%TD*%
D19*
%TO.C,R19*%
X190510000Y-109175000D03*
X190510000Y-110825000D03*
%TD*%
D46*
%TO.C,C14*%
X192310000Y-108230000D03*
X192310000Y-106330000D03*
%TD*%
D66*
%TO.C,C39*%
X105500000Y-83400000D03*
X107400000Y-83400000D03*
%TD*%
D15*
%TO.C,R30*%
X110540000Y-98785000D03*
X108890000Y-98785000D03*
%TD*%
D17*
%TO.C,R16*%
X190510000Y-107600000D03*
X190510000Y-105950000D03*
%TD*%
D19*
%TO.C,R44*%
X134684601Y-102150000D03*
X134684601Y-103800000D03*
%TD*%
D15*
%TO.C,R53*%
X122292051Y-100500000D03*
X120642051Y-100500000D03*
%TD*%
D38*
%TO.C,C12*%
X157610000Y-110842500D03*
X157610000Y-112917500D03*
%TD*%
D57*
%TO.C,C73*%
X95910000Y-119680000D03*
X95910000Y-114280000D03*
%TD*%
D16*
%TO.C,C38*%
X103275000Y-86325000D03*
X101725000Y-86325000D03*
%TD*%
D44*
%TO.C,C17*%
X188910000Y-102950000D03*
X188910000Y-101400000D03*
%TD*%
M02*
