%TF.GenerationSoftware,KiCad,Pcbnew,9.0.4*%
%TF.CreationDate,2025-10-13T21:54:11+02:00*%
%TF.ProjectId,PM3_Audio_and_DMX,504d335f-4175-4646-996f-5f616e645f44,rev?*%
%TF.SameCoordinates,Original*%
%TF.FileFunction,Paste,Top*%
%TF.FilePolarity,Positive*%
%FSLAX46Y46*%
G04 Gerber Fmt 4.6, Leading zero omitted, Abs format (unit mm)*
G04 Created by KiCad (PCBNEW 9.0.4) date 2025-10-13 21:54:11*
%MOMM*%
%LPD*%
G01*
G04 APERTURE LIST*
G04 Aperture macros list*
%AMRoundRect*
0 Rectangle with rounded corners*
0 $1 Rounding radius*
0 $2 $3 $4 $5 $6 $7 $8 $9 X,Y pos of 4 corners*
0 Add a 4 corners polygon primitive as box body*
4,1,4,$2,$3,$4,$5,$6,$7,$8,$9,$2,$3,0*
0 Add four circle primitives for the rounded corners*
1,1,$1+$1,$2,$3*
1,1,$1+$1,$4,$5*
1,1,$1+$1,$6,$7*
1,1,$1+$1,$8,$9*
0 Add four rect primitives between the rounded corners*
20,1,$1+$1,$2,$3,$4,$5,0*
20,1,$1+$1,$4,$5,$6,$7,0*
20,1,$1+$1,$6,$7,$8,$9,0*
20,1,$1+$1,$8,$9,$2,$3,0*%
G04 Aperture macros list end*
%ADD10R,2.200000X2.800000*%
%ADD11R,2.800000X2.800000*%
%ADD12RoundRect,0.225000X-0.250000X0.225000X-0.250000X-0.225000X0.250000X-0.225000X0.250000X0.225000X0*%
%ADD13RoundRect,0.250000X-0.450000X0.262500X-0.450000X-0.262500X0.450000X-0.262500X0.450000X0.262500X0*%
%ADD14RoundRect,0.200000X0.200000X0.275000X-0.200000X0.275000X-0.200000X-0.275000X0.200000X-0.275000X0*%
%ADD15RoundRect,0.225000X0.225000X0.250000X-0.225000X0.250000X-0.225000X-0.250000X0.225000X-0.250000X0*%
%ADD16RoundRect,0.200000X0.275000X-0.200000X0.275000X0.200000X-0.275000X0.200000X-0.275000X-0.200000X0*%
%ADD17RoundRect,0.250000X0.337500X0.475000X-0.337500X0.475000X-0.337500X-0.475000X0.337500X-0.475000X0*%
%ADD18RoundRect,0.200000X-0.275000X0.200000X-0.275000X-0.200000X0.275000X-0.200000X0.275000X0.200000X0*%
%ADD19RoundRect,0.200000X-0.200000X-0.275000X0.200000X-0.275000X0.200000X0.275000X-0.200000X0.275000X0*%
%ADD20RoundRect,0.250000X-1.500000X-0.550000X1.500000X-0.550000X1.500000X0.550000X-1.500000X0.550000X0*%
%ADD21RoundRect,0.150000X0.150000X-0.512500X0.150000X0.512500X-0.150000X0.512500X-0.150000X-0.512500X0*%
%ADD22RoundRect,0.250000X-0.550000X1.500000X-0.550000X-1.500000X0.550000X-1.500000X0.550000X1.500000X0*%
%ADD23R,1.600000X1.000000*%
%ADD24R,1.000000X1.700000*%
%ADD25RoundRect,0.225000X-0.225000X-0.250000X0.225000X-0.250000X0.225000X0.250000X-0.225000X0.250000X0*%
%ADD26R,2.800000X2.200000*%
%ADD27RoundRect,0.150000X-0.825000X-0.150000X0.825000X-0.150000X0.825000X0.150000X-0.825000X0.150000X0*%
%ADD28RoundRect,0.250000X-0.475000X0.337500X-0.475000X-0.337500X0.475000X-0.337500X0.475000X0.337500X0*%
%ADD29RoundRect,0.250000X0.250000X0.475000X-0.250000X0.475000X-0.250000X-0.475000X0.250000X-0.475000X0*%
%ADD30RoundRect,0.250000X0.412500X0.650000X-0.412500X0.650000X-0.412500X-0.650000X0.412500X-0.650000X0*%
%ADD31RoundRect,0.250000X-0.457500X-0.445000X0.457500X-0.445000X0.457500X0.445000X-0.457500X0.445000X0*%
%ADD32RoundRect,0.250000X-0.475000X0.250000X-0.475000X-0.250000X0.475000X-0.250000X0.475000X0.250000X0*%
%ADD33RoundRect,0.250000X0.625000X-0.312500X0.625000X0.312500X-0.625000X0.312500X-0.625000X-0.312500X0*%
%ADD34RoundRect,0.249999X0.640001X-0.750001X0.640001X0.750001X-0.640001X0.750001X-0.640001X-0.750001X0*%
%ADD35RoundRect,0.225000X0.250000X-0.225000X0.250000X0.225000X-0.250000X0.225000X-0.250000X-0.225000X0*%
%ADD36RoundRect,0.250000X-0.445000X0.457500X-0.445000X-0.457500X0.445000X-0.457500X0.445000X0.457500X0*%
%ADD37RoundRect,0.250000X-0.325000X-1.100000X0.325000X-1.100000X0.325000X1.100000X-0.325000X1.100000X0*%
%ADD38RoundRect,0.250000X-0.950000X0.750000X-0.950000X-0.750000X0.950000X-0.750000X0.950000X0.750000X0*%
%ADD39RoundRect,0.125000X0.600000X0.125000X-0.600000X0.125000X-0.600000X-0.125000X0.600000X-0.125000X0*%
%ADD40RoundRect,0.157500X0.157500X0.222500X-0.157500X0.222500X-0.157500X-0.222500X0.157500X-0.222500X0*%
%ADD41RoundRect,0.250000X-0.412500X-0.650000X0.412500X-0.650000X0.412500X0.650000X-0.412500X0.650000X0*%
%ADD42RoundRect,0.250000X0.550000X-1.500000X0.550000X1.500000X-0.550000X1.500000X-0.550000X-1.500000X0*%
%ADD43RoundRect,0.150000X0.150000X-0.825000X0.150000X0.825000X-0.150000X0.825000X-0.150000X-0.825000X0*%
%ADD44RoundRect,0.100000X0.100000X-0.637500X0.100000X0.637500X-0.100000X0.637500X-0.100000X-0.637500X0*%
%ADD45RoundRect,0.250000X0.445000X-0.457500X0.445000X0.457500X-0.445000X0.457500X-0.445000X-0.457500X0*%
%ADD46RoundRect,0.250000X0.475000X-0.250000X0.475000X0.250000X-0.475000X0.250000X-0.475000X-0.250000X0*%
G04 APERTURE END LIST*
D10*
%TO.C,J3*%
X82900000Y-102800000D03*
X80900000Y-110200000D03*
D11*
X90300000Y-110200000D03*
%TD*%
D12*
%TO.C,C34*%
X143004965Y-101947184D03*
X143004965Y-100397184D03*
%TD*%
D13*
%TO.C,R9*%
X159624638Y-112601118D03*
X159624638Y-110776118D03*
%TD*%
D14*
%TO.C,R1*%
X82522239Y-87311812D03*
X84172239Y-87311812D03*
%TD*%
D15*
%TO.C,C69*%
X110559636Y-111534553D03*
X112109636Y-111534553D03*
%TD*%
D16*
%TO.C,R47*%
X131684601Y-102150000D03*
X131684601Y-103800000D03*
%TD*%
D15*
%TO.C,C50*%
X85641191Y-88817087D03*
X87191191Y-88817087D03*
%TD*%
D17*
%TO.C,C13*%
X157772500Y-108880000D03*
X159847500Y-108880000D03*
%TD*%
D15*
%TO.C,C59*%
X124728310Y-89286421D03*
X126278310Y-89286421D03*
%TD*%
D16*
%TO.C,R14*%
X192410000Y-94855000D03*
X192410000Y-96505000D03*
%TD*%
%TO.C,R63*%
X116592498Y-115517069D03*
X116592498Y-117167069D03*
%TD*%
D18*
%TO.C,R36*%
X104500000Y-98650000D03*
X104500000Y-97000000D03*
%TD*%
D19*
%TO.C,R12*%
X169526988Y-101268579D03*
X167876988Y-101268579D03*
%TD*%
%TO.C,R62*%
X113134636Y-113534553D03*
X111484636Y-113534553D03*
%TD*%
D20*
%TO.C,C56*%
X134884601Y-97500000D03*
X129484601Y-97500000D03*
%TD*%
D19*
%TO.C,R51*%
X126325000Y-87500000D03*
X124675000Y-87500000D03*
%TD*%
D21*
%TO.C,D1*%
X170902940Y-103647500D03*
X171852940Y-105922500D03*
X169952940Y-105922500D03*
%TD*%
D22*
%TO.C,C74*%
X103160000Y-114280000D03*
X103160000Y-119680000D03*
%TD*%
D19*
%TO.C,R28*%
X107540000Y-98785000D03*
X105890000Y-98785000D03*
%TD*%
D14*
%TO.C,R56*%
X111859601Y-80000000D03*
X113509601Y-80000000D03*
%TD*%
%TO.C,R58*%
X117859601Y-80000000D03*
X119509601Y-80000000D03*
%TD*%
D23*
%TO.C,SW3*%
X187300000Y-84000000D03*
X187300000Y-81500000D03*
X187300000Y-79000000D03*
X189700000Y-84000000D03*
X189700000Y-81500000D03*
X189700000Y-79000000D03*
%TD*%
D24*
%TO.C,BOOT1*%
X86800000Y-90700000D03*
X86800000Y-97000000D03*
X83000000Y-90700000D03*
X83000000Y-97000000D03*
%TD*%
D14*
%TO.C,R43*%
X123859601Y-102500000D03*
X125509601Y-102500000D03*
%TD*%
%TO.C,R59*%
X111785000Y-120880000D03*
X113435000Y-120880000D03*
%TD*%
D25*
%TO.C,C6*%
X77851314Y-88823338D03*
X76301314Y-88823338D03*
%TD*%
D19*
%TO.C,R31*%
X110540000Y-97285000D03*
X108890000Y-97285000D03*
%TD*%
D12*
%TO.C,C16*%
X195610000Y-104855000D03*
X195610000Y-103305000D03*
%TD*%
D11*
%TO.C,J4*%
X163300000Y-82300000D03*
D26*
X163300000Y-72900000D03*
X170700000Y-74900000D03*
%TD*%
D25*
%TO.C,C68*%
X110209993Y-120280000D03*
X108659993Y-120280000D03*
%TD*%
D12*
%TO.C,C60*%
X119302063Y-92717462D03*
X119302063Y-91167462D03*
%TD*%
D16*
%TO.C,R50*%
X130184601Y-102150000D03*
X130184601Y-103800000D03*
%TD*%
D27*
%TO.C,U5*%
X165615000Y-103437500D03*
X165615000Y-104707500D03*
X165615000Y-105977500D03*
X165615000Y-107247500D03*
X160665000Y-107247500D03*
X160665000Y-105977500D03*
X160665000Y-104707500D03*
X160665000Y-103437500D03*
%TD*%
D12*
%TO.C,C54*%
X133184601Y-103750000D03*
X133184601Y-102200000D03*
%TD*%
D28*
%TO.C,C11*%
X157695000Y-118322500D03*
X157695000Y-116247500D03*
%TD*%
D16*
%TO.C,R46*%
X130184601Y-83675000D03*
X130184601Y-85325000D03*
%TD*%
D14*
%TO.C,R45*%
X124675000Y-85500000D03*
X126325000Y-85500000D03*
%TD*%
D29*
%TO.C,C70*%
X112809636Y-119034553D03*
X114709636Y-119034553D03*
%TD*%
D30*
%TO.C,C2*%
X153687500Y-69750000D03*
X156812500Y-69750000D03*
%TD*%
D12*
%TO.C,C37*%
X108500000Y-90600000D03*
X108500000Y-89050000D03*
%TD*%
D31*
%TO.C,C66*%
X119612136Y-119034553D03*
X116907136Y-119034553D03*
%TD*%
D14*
%TO.C,R7*%
X144392338Y-115730707D03*
X146042338Y-115730707D03*
%TD*%
D22*
%TO.C,C64*%
X115684601Y-104200000D03*
X115684601Y-98800000D03*
%TD*%
D16*
%TO.C,R15*%
X188910000Y-104350000D03*
X188910000Y-106000000D03*
%TD*%
D32*
%TO.C,C35*%
X141192052Y-102089071D03*
X141192052Y-100189071D03*
%TD*%
D33*
%TO.C,R11*%
X167994687Y-102871147D03*
X167994687Y-105796147D03*
%TD*%
D18*
%TO.C,R18*%
X187110000Y-105975000D03*
X187110000Y-104325000D03*
%TD*%
D34*
%TO.C,U3*%
X140385000Y-104180000D03*
X142925000Y-104180000D03*
X145465000Y-104180000D03*
X148005000Y-104180000D03*
X148005000Y-113710000D03*
X145465000Y-113710000D03*
X142925000Y-113710000D03*
X140385000Y-113710000D03*
%TD*%
D11*
%TO.C,J2*%
X174800000Y-82300000D03*
D26*
X174800000Y-72900000D03*
X182200000Y-74900000D03*
%TD*%
D35*
%TO.C,C31*%
X96000000Y-92050000D03*
X96000000Y-93600000D03*
%TD*%
D32*
%TO.C,C33*%
X140574012Y-117701969D03*
X140574012Y-115801969D03*
%TD*%
D36*
%TO.C,C18*%
X188610000Y-110480000D03*
X188610000Y-107775000D03*
%TD*%
D18*
%TO.C,R48*%
X133184601Y-85325000D03*
X133184601Y-83675000D03*
%TD*%
D14*
%TO.C,R55*%
X111859601Y-106000000D03*
X113509601Y-106000000D03*
%TD*%
D19*
%TO.C,R2*%
X77897327Y-87338407D03*
X76247327Y-87338407D03*
%TD*%
D24*
%TO.C,EN1*%
X76700000Y-97000000D03*
X76700000Y-90700000D03*
X80500000Y-97000000D03*
X80500000Y-90700000D03*
%TD*%
D15*
%TO.C,C62*%
X121422188Y-89245030D03*
X122972188Y-89245030D03*
%TD*%
D37*
%TO.C,C3*%
X87371063Y-79859846D03*
X84421063Y-79859846D03*
%TD*%
D38*
%TO.C,Y1*%
X93000000Y-96175000D03*
X93000000Y-92475000D03*
%TD*%
D15*
%TO.C,C58*%
X123909601Y-98500000D03*
X125459601Y-98500000D03*
%TD*%
D14*
%TO.C,R54*%
X121359601Y-87500000D03*
X123009601Y-87500000D03*
%TD*%
D21*
%TO.C,U6*%
X190560000Y-101837500D03*
X192460000Y-101837500D03*
X192460000Y-104112500D03*
X191510000Y-104112500D03*
X190560000Y-104112500D03*
%TD*%
D12*
%TO.C,C32*%
X142350398Y-117306496D03*
X142350398Y-115756496D03*
%TD*%
D39*
%TO.C,U14*%
X110240000Y-117000000D03*
X110240000Y-116350000D03*
X110240000Y-115700000D03*
X110240000Y-115050000D03*
X114540000Y-115050000D03*
X114540000Y-115700000D03*
X114540000Y-116350000D03*
X114540000Y-117000000D03*
D40*
X112000000Y-115555000D03*
X112000000Y-116495000D03*
X112780000Y-115555000D03*
X112780000Y-116495000D03*
%TD*%
D35*
%TO.C,C55*%
X131684601Y-83725000D03*
X131684601Y-85275000D03*
%TD*%
D41*
%TO.C,C1*%
X159562500Y-129500000D03*
X156437500Y-129500000D03*
%TD*%
D18*
%TO.C,R34*%
X99500000Y-98650000D03*
X99500000Y-97000000D03*
%TD*%
D16*
%TO.C,R8*%
X150485000Y-102405000D03*
X150485000Y-104055000D03*
%TD*%
%TO.C,R60*%
X114578740Y-111909563D03*
X114578740Y-113559563D03*
%TD*%
D37*
%TO.C,C4*%
X87371063Y-83359846D03*
X84421063Y-83359846D03*
%TD*%
D14*
%TO.C,R3*%
X85587701Y-87317087D03*
X87237701Y-87317087D03*
%TD*%
D42*
%TO.C,C72*%
X88660000Y-114280000D03*
X88660000Y-119680000D03*
%TD*%
D14*
%TO.C,R29*%
X105890000Y-97285000D03*
X107540000Y-97285000D03*
%TD*%
D18*
%TO.C,R35*%
X101000000Y-98650000D03*
X101000000Y-97000000D03*
%TD*%
D14*
%TO.C,R61*%
X108614636Y-118680000D03*
X110264636Y-118680000D03*
%TD*%
D43*
%TO.C,U13*%
X120897063Y-91432943D03*
X122167063Y-91432943D03*
X123437063Y-91432943D03*
X124707063Y-91432943D03*
X124707063Y-96382943D03*
X123437063Y-96382943D03*
X122167063Y-96382943D03*
X120897063Y-96382943D03*
%TD*%
D42*
%TO.C,C41*%
X96000000Y-79800000D03*
X96000000Y-85200000D03*
%TD*%
%TO.C,C65*%
X115684601Y-81800000D03*
X115684601Y-87200000D03*
%TD*%
D31*
%TO.C,C67*%
X119062136Y-113284553D03*
X116357136Y-113284553D03*
%TD*%
D25*
%TO.C,C52*%
X122242051Y-102500000D03*
X120692051Y-102500000D03*
%TD*%
D16*
%TO.C,R33*%
X98000000Y-97000000D03*
X98000000Y-98650000D03*
%TD*%
D18*
%TO.C,R52*%
X134684601Y-85325000D03*
X134684601Y-83675000D03*
%TD*%
D32*
%TO.C,C39*%
X125280308Y-110176772D03*
X125280308Y-108276772D03*
%TD*%
D18*
%TO.C,R32*%
X102500000Y-98650000D03*
X102500000Y-97000000D03*
%TD*%
D12*
%TO.C,C30*%
X96000000Y-96600000D03*
X96000000Y-95050000D03*
%TD*%
D20*
%TO.C,C57*%
X134884601Y-90000000D03*
X129484601Y-90000000D03*
%TD*%
D19*
%TO.C,R49*%
X125509601Y-100500000D03*
X123859601Y-100500000D03*
%TD*%
D25*
%TO.C,C53*%
X122959601Y-85500000D03*
X121409601Y-85500000D03*
%TD*%
%TO.C,C5*%
X87193119Y-85735431D03*
X85643119Y-85735431D03*
%TD*%
D44*
%TO.C,U10*%
X98300000Y-88825000D03*
X98950000Y-88825000D03*
X99600000Y-88825000D03*
X100250000Y-88825000D03*
X100900000Y-88825000D03*
X101550000Y-88825000D03*
X102200000Y-88825000D03*
X102850000Y-88825000D03*
X103500000Y-88825000D03*
X104150000Y-88825000D03*
X104800000Y-88825000D03*
X105450000Y-88825000D03*
X106100000Y-88825000D03*
X106750000Y-88825000D03*
X106750000Y-94550000D03*
X106100000Y-94550000D03*
X105450000Y-94550000D03*
X104800000Y-94550000D03*
X104150000Y-94550000D03*
X103500000Y-94550000D03*
X102850000Y-94550000D03*
X102200000Y-94550000D03*
X101550000Y-94550000D03*
X100900000Y-94550000D03*
X100250000Y-94550000D03*
X99600000Y-94550000D03*
X98950000Y-94550000D03*
X98300000Y-94550000D03*
%TD*%
D14*
%TO.C,R4*%
X108500000Y-94575000D03*
X110150000Y-94575000D03*
%TD*%
%TO.C,R57*%
X117859601Y-106000000D03*
X119509601Y-106000000D03*
%TD*%
D45*
%TO.C,C15*%
X190410000Y-96527500D03*
X190410000Y-99232500D03*
%TD*%
D15*
%TO.C,C61*%
X120692051Y-98523177D03*
X122242051Y-98523177D03*
%TD*%
D16*
%TO.C,R10*%
X167910000Y-107305320D03*
X167910000Y-108955320D03*
%TD*%
D18*
%TO.C,R17*%
X194010000Y-104800000D03*
X194010000Y-103150000D03*
%TD*%
D14*
%TO.C,R13*%
X147085000Y-119980000D03*
X148735000Y-119980000D03*
%TD*%
D25*
%TO.C,C71*%
X110084636Y-113534553D03*
X108534636Y-113534553D03*
%TD*%
D32*
%TO.C,C40*%
X110500000Y-90775000D03*
X110500000Y-88875000D03*
%TD*%
D12*
%TO.C,C36*%
X127000000Y-109775000D03*
X127000000Y-108225000D03*
%TD*%
D18*
%TO.C,R19*%
X190510000Y-110825000D03*
X190510000Y-109175000D03*
%TD*%
D46*
%TO.C,C14*%
X192310000Y-106330000D03*
X192310000Y-108230000D03*
%TD*%
D14*
%TO.C,R30*%
X108890000Y-98785000D03*
X110540000Y-98785000D03*
%TD*%
D16*
%TO.C,R16*%
X190510000Y-105950000D03*
X190510000Y-107600000D03*
%TD*%
D18*
%TO.C,R44*%
X134684601Y-103800000D03*
X134684601Y-102150000D03*
%TD*%
D14*
%TO.C,R53*%
X120642051Y-100500000D03*
X122292051Y-100500000D03*
%TD*%
D28*
%TO.C,C12*%
X157610000Y-112917500D03*
X157610000Y-110842500D03*
%TD*%
D42*
%TO.C,C73*%
X95910000Y-114280000D03*
X95910000Y-119680000D03*
%TD*%
D15*
%TO.C,C38*%
X101725000Y-86325000D03*
X103275000Y-86325000D03*
%TD*%
D35*
%TO.C,C17*%
X188910000Y-101400000D03*
X188910000Y-102950000D03*
%TD*%
M02*
