%TF.GenerationSoftware,KiCad,Pcbnew,9.0.4*%
%TF.CreationDate,2025-10-15T22:14:34+02:00*%
%TF.ProjectId,PM3_Audio_and_DMX,504d335f-4175-4646-996f-5f616e645f44,rev?*%
%TF.SameCoordinates,Original*%
%TF.FileFunction,Paste,Bot*%
%TF.FilePolarity,Positive*%
%FSLAX46Y46*%
G04 Gerber Fmt 4.6, Leading zero omitted, Abs format (unit mm)*
G04 Created by KiCad (PCBNEW 9.0.4) date 2025-10-15 22:14:34*
%MOMM*%
%LPD*%
G01*
G04 APERTURE LIST*
G04 Aperture macros list*
%AMRoundRect*
0 Rectangle with rounded corners*
0 $1 Rounding radius*
0 $2 $3 $4 $5 $6 $7 $8 $9 X,Y pos of 4 corners*
0 Add a 4 corners polygon primitive as box body*
4,1,4,$2,$3,$4,$5,$6,$7,$8,$9,$2,$3,0*
0 Add four circle primitives for the rounded corners*
1,1,$1+$1,$2,$3*
1,1,$1+$1,$4,$5*
1,1,$1+$1,$6,$7*
1,1,$1+$1,$8,$9*
0 Add four rect primitives between the rounded corners*
20,1,$1+$1,$2,$3,$4,$5,0*
20,1,$1+$1,$4,$5,$6,$7,0*
20,1,$1+$1,$6,$7,$8,$9,0*
20,1,$1+$1,$8,$9,$2,$3,0*%
G04 Aperture macros list end*
%ADD10RoundRect,0.250000X1.050000X0.550000X-1.050000X0.550000X-1.050000X-0.550000X1.050000X-0.550000X0*%
%ADD11RoundRect,0.150000X0.150000X-0.825000X0.150000X0.825000X-0.150000X0.825000X-0.150000X-0.825000X0*%
%ADD12RoundRect,0.225000X0.225000X0.250000X-0.225000X0.250000X-0.225000X-0.250000X0.225000X-0.250000X0*%
%ADD13RoundRect,0.200000X-0.200000X-0.275000X0.200000X-0.275000X0.200000X0.275000X-0.200000X0.275000X0*%
%ADD14RoundRect,0.200000X-0.275000X0.200000X-0.275000X-0.200000X0.275000X-0.200000X0.275000X0.200000X0*%
%ADD15RoundRect,0.200000X0.200000X0.275000X-0.200000X0.275000X-0.200000X-0.275000X0.200000X-0.275000X0*%
%ADD16RoundRect,0.250000X-1.100000X0.325000X-1.100000X-0.325000X1.100000X-0.325000X1.100000X0.325000X0*%
%ADD17RoundRect,0.225000X-0.250000X0.225000X-0.250000X-0.225000X0.250000X-0.225000X0.250000X0.225000X0*%
%ADD18RoundRect,0.250000X0.325000X1.100000X-0.325000X1.100000X-0.325000X-1.100000X0.325000X-1.100000X0*%
%ADD19RoundRect,0.250000X-0.325000X-1.100000X0.325000X-1.100000X0.325000X1.100000X-0.325000X1.100000X0*%
%ADD20RoundRect,0.250000X-0.457500X-0.445000X0.457500X-0.445000X0.457500X0.445000X-0.457500X0.445000X0*%
%ADD21RoundRect,0.225000X-0.225000X-0.250000X0.225000X-0.250000X0.225000X0.250000X-0.225000X0.250000X0*%
%ADD22RoundRect,0.167500X-0.407500X0.167500X-0.407500X-0.167500X0.407500X-0.167500X0.407500X0.167500X0*%
%ADD23RoundRect,0.100000X-0.100000X0.625000X-0.100000X-0.625000X0.100000X-0.625000X0.100000X0.625000X0*%
%ADD24RoundRect,0.250000X-0.550000X1.050000X-0.550000X-1.050000X0.550000X-1.050000X0.550000X1.050000X0*%
%ADD25R,0.900000X1.500000*%
%ADD26R,1.500000X0.900000*%
%ADD27R,0.900000X0.900000*%
%ADD28RoundRect,0.250000X1.100000X-0.325000X1.100000X0.325000X-1.100000X0.325000X-1.100000X-0.325000X0*%
%ADD29RoundRect,0.167500X0.407500X-0.167500X0.407500X0.167500X-0.407500X0.167500X-0.407500X-0.167500X0*%
%ADD30RoundRect,0.100000X0.100000X-0.625000X0.100000X0.625000X-0.100000X0.625000X-0.100000X-0.625000X0*%
%ADD31RoundRect,0.245000X-1.605000X0.245000X-1.605000X-0.245000X1.605000X-0.245000X1.605000X0.245000X0*%
%ADD32RoundRect,0.150000X0.512500X0.150000X-0.512500X0.150000X-0.512500X-0.150000X0.512500X-0.150000X0*%
%ADD33RoundRect,0.225000X0.250000X-0.225000X0.250000X0.225000X-0.250000X0.225000X-0.250000X-0.225000X0*%
%ADD34RoundRect,0.250000X-0.475000X0.250000X-0.475000X-0.250000X0.475000X-0.250000X0.475000X0.250000X0*%
%ADD35RoundRect,0.150000X-0.150000X0.825000X-0.150000X-0.825000X0.150000X-0.825000X0.150000X0.825000X0*%
G04 APERTURE END LIST*
D10*
%TO.C,C42*%
X183000000Y-111025000D03*
X179400000Y-111025000D03*
%TD*%
D11*
%TO.C,U11*%
X192540000Y-111000000D03*
X191270000Y-111000000D03*
X190000000Y-111000000D03*
X188730000Y-111000000D03*
X188730000Y-106050000D03*
X190000000Y-106050000D03*
X191270000Y-106050000D03*
X192540000Y-106050000D03*
%TD*%
D12*
%TO.C,C44*%
X192910000Y-113025000D03*
X191360000Y-113025000D03*
%TD*%
D13*
%TO.C,R22*%
X123555000Y-108280000D03*
X125205000Y-108280000D03*
%TD*%
D14*
%TO.C,R37*%
X185635000Y-109375000D03*
X185635000Y-111025000D03*
%TD*%
D15*
%TO.C,R24*%
X122235000Y-113123823D03*
X120585000Y-113123823D03*
%TD*%
D16*
%TO.C,C25*%
X128225000Y-114505000D03*
X128225000Y-117455000D03*
%TD*%
D17*
%TO.C,C21*%
X133210000Y-116105000D03*
X133210000Y-117655000D03*
%TD*%
D14*
%TO.C,R38*%
X185635000Y-106375000D03*
X185635000Y-108025000D03*
%TD*%
D13*
%TO.C,R27*%
X141410000Y-79937500D03*
X143060000Y-79937500D03*
%TD*%
D10*
%TO.C,C43*%
X183000000Y-106025000D03*
X179400000Y-106025000D03*
%TD*%
D18*
%TO.C,C9*%
X107780099Y-88531988D03*
X104830099Y-88531988D03*
%TD*%
D19*
%TO.C,C22*%
X137935000Y-120230000D03*
X140885000Y-120230000D03*
%TD*%
%TO.C,C20*%
X135025000Y-113500000D03*
X137975000Y-113500000D03*
%TD*%
D20*
%TO.C,C7*%
X110452599Y-83531988D03*
X113157599Y-83531988D03*
%TD*%
D15*
%TO.C,R26*%
X143060000Y-91937500D03*
X141410000Y-91937500D03*
%TD*%
D21*
%TO.C,C47*%
X188360000Y-102525000D03*
X189910000Y-102525000D03*
%TD*%
D22*
%TO.C,U9*%
X142885000Y-83847500D03*
X141465000Y-83847500D03*
X142885000Y-84677500D03*
X141465000Y-84677500D03*
D23*
X140550000Y-82112500D03*
X141200000Y-82112500D03*
X141850000Y-82112500D03*
X142500000Y-82112500D03*
X143150000Y-82112500D03*
X143800000Y-82112500D03*
X143800000Y-86412500D03*
X143150000Y-86412500D03*
X142500000Y-86412500D03*
X141850000Y-86412500D03*
X141200000Y-86412500D03*
X140550000Y-86412500D03*
%TD*%
D22*
%TO.C,U2*%
X107510000Y-82935000D03*
X106090000Y-82935000D03*
X107510000Y-83765000D03*
X106090000Y-83765000D03*
D23*
X105175000Y-81200000D03*
X105825000Y-81200000D03*
X106475000Y-81200000D03*
X107125000Y-81200000D03*
X107775000Y-81200000D03*
X108425000Y-81200000D03*
X108425000Y-85500000D03*
X107775000Y-85500000D03*
X107125000Y-85500000D03*
X106475000Y-85500000D03*
X105825000Y-85500000D03*
X105175000Y-85500000D03*
%TD*%
D19*
%TO.C,C23*%
X123500000Y-110730000D03*
X126450000Y-110730000D03*
%TD*%
D18*
%TO.C,C28*%
X143035000Y-89437500D03*
X140085000Y-89437500D03*
%TD*%
D20*
%TO.C,C26*%
X145882500Y-83937500D03*
X148587500Y-83937500D03*
%TD*%
D24*
%TO.C,C19*%
X146010000Y-112180000D03*
X146010000Y-115780000D03*
%TD*%
D14*
%TO.C,R20*%
X134810000Y-116680000D03*
X134810000Y-118330000D03*
%TD*%
D17*
%TO.C,C34*%
X105200000Y-95025000D03*
X105200000Y-96575000D03*
%TD*%
D25*
%TO.C,U1*%
X76180000Y-86350000D03*
X77450000Y-86350000D03*
X78720000Y-86350000D03*
X79990000Y-86350000D03*
X81260000Y-86350000D03*
X82530000Y-86350000D03*
X83800000Y-86350000D03*
X85070000Y-86350000D03*
X86340000Y-86350000D03*
X87610000Y-86350000D03*
X88880000Y-86350000D03*
X90150000Y-86350000D03*
X91420000Y-86350000D03*
X92690000Y-86350000D03*
D26*
X93940000Y-89390000D03*
X93940000Y-90660000D03*
X93940000Y-91930000D03*
X93940000Y-93200000D03*
X93940000Y-94470000D03*
X93940000Y-95740000D03*
X93940000Y-97010000D03*
X93940000Y-98280000D03*
X93940000Y-99550000D03*
X93940000Y-100820000D03*
D25*
X92690000Y-103850000D03*
X91420000Y-103850000D03*
X90150000Y-103850000D03*
X88880000Y-103850000D03*
X87610000Y-103850000D03*
X86340000Y-103850000D03*
X85070000Y-103850000D03*
X83800000Y-103850000D03*
X82530000Y-103850000D03*
X81260000Y-103850000D03*
X79990000Y-103850000D03*
X78720000Y-103850000D03*
X77450000Y-103850000D03*
X76180000Y-103850000D03*
D27*
X85300000Y-92200000D03*
X83900000Y-92200000D03*
X82500000Y-92200000D03*
X85300000Y-93600000D03*
X83900000Y-93600000D03*
X82500000Y-93600000D03*
X85300000Y-95000000D03*
X83900000Y-95000000D03*
X82500000Y-95000000D03*
%TD*%
D12*
%TO.C,C45*%
X192910000Y-104025000D03*
X191360000Y-104025000D03*
%TD*%
D28*
%TO.C,C29*%
X138235000Y-86412500D03*
X138235000Y-83462500D03*
%TD*%
D14*
%TO.C,R25*%
X120785000Y-115055000D03*
X120785000Y-116705000D03*
%TD*%
D17*
%TO.C,C49*%
X194199090Y-106299347D03*
X194199090Y-107849347D03*
%TD*%
D29*
%TO.C,U8*%
X123307973Y-117492614D03*
X124727973Y-117492614D03*
X123307973Y-116662614D03*
X124727973Y-116662614D03*
D30*
X125642973Y-119227614D03*
X124992973Y-119227614D03*
X124342973Y-119227614D03*
X123692973Y-119227614D03*
X123042973Y-119227614D03*
X122392973Y-119227614D03*
X122392973Y-114927614D03*
X123042973Y-114927614D03*
X123692973Y-114927614D03*
X124342973Y-114927614D03*
X124992973Y-114927614D03*
X125642973Y-114927614D03*
%TD*%
D15*
%TO.C,R21*%
X135635000Y-119880000D03*
X133985000Y-119880000D03*
%TD*%
%TO.C,R42*%
X192960000Y-102525000D03*
X191310000Y-102525000D03*
%TD*%
D21*
%TO.C,C8*%
X110530099Y-85531988D03*
X112080099Y-85531988D03*
%TD*%
D13*
%TO.C,R6*%
X106480099Y-79031988D03*
X108130099Y-79031988D03*
%TD*%
D15*
%TO.C,R40*%
X189960000Y-104025000D03*
X188310000Y-104025000D03*
%TD*%
%TO.C,R5*%
X107630099Y-91031988D03*
X105980099Y-91031988D03*
%TD*%
D31*
%TO.C,L1*%
X141160000Y-111295000D03*
X141160000Y-113665000D03*
%TD*%
D12*
%TO.C,C46*%
X189910000Y-114525000D03*
X188360000Y-114525000D03*
%TD*%
D32*
%TO.C,U7*%
X138852500Y-115885000D03*
X138852500Y-116835000D03*
X138852500Y-117785000D03*
X136577500Y-117785000D03*
X136577500Y-116835000D03*
X136577500Y-115885000D03*
%TD*%
D15*
%TO.C,R41*%
X192960000Y-114525000D03*
X191310000Y-114525000D03*
%TD*%
D28*
%TO.C,C10*%
X102805099Y-85506988D03*
X102805099Y-82556988D03*
%TD*%
D21*
%TO.C,C27*%
X145460000Y-85937500D03*
X147010000Y-85937500D03*
%TD*%
D15*
%TO.C,R23*%
X124230000Y-121080000D03*
X122580000Y-121080000D03*
%TD*%
D33*
%TO.C,C48*%
X187115000Y-122355000D03*
X187115000Y-120805000D03*
%TD*%
D20*
%TO.C,C24*%
X127652027Y-120242647D03*
X130357027Y-120242647D03*
%TD*%
D34*
%TO.C,C35*%
X103240000Y-94895000D03*
X103240000Y-96795000D03*
%TD*%
D15*
%TO.C,R39*%
X189960000Y-113025000D03*
X188310000Y-113025000D03*
%TD*%
D35*
%TO.C,U12*%
X188730000Y-117550000D03*
X190000000Y-117550000D03*
X191270000Y-117550000D03*
X192540000Y-117550000D03*
X192540000Y-122500000D03*
X191270000Y-122500000D03*
X190000000Y-122500000D03*
X188730000Y-122500000D03*
%TD*%
M02*
